<svg width="272" height="142" viewBox="0 0 272 142" fill="none" xmlns="http://www.w3.org/2000/svg">
    <path d="M59.6659 64.8155V59.7937H60.5616V61.9639H60.5829L62.6887 59.7937H63.8986L61.5437 62.1131L64.0547 64.8155H62.7949L60.5829 62.2977H60.5616V64.8155H59.6659Z"
          fill="#39AAE1"/>
    <path d="M65.051 64.8861C64.8046 64.8861 64.5908 64.8655 64.4102 64.8236L64.5245 64.029C64.6616 64.0709 64.801 64.0915 64.9431 64.0915C65.1283 64.0915 65.2765 64.0474 65.3879 63.9578C65.4999 63.8679 65.6098 63.7164 65.7189 63.5041L65.8759 63.2057L63.9413 59.7937H64.9801L66.3802 62.3748L67.7035 59.7937H68.7062L66.6153 63.66C66.3875 64.0855 66.1657 64.3958 65.9503 64.5921C65.7335 64.7884 65.4343 64.8861 65.051 64.8861Z"
          fill="#39AAE1"/>
    <path d="M68.8566 64.8655C68.6148 64.8655 68.4151 64.842 68.2587 64.7945L68.3501 64.0061C68.4504 64.0392 68.5528 64.057 68.6569 64.057C69.0136 64.057 69.2688 63.8482 69.4286 63.4328C69.5873 63.0167 69.6669 62.2815 69.6669 61.2272V59.7937H73.1319V64.8155H72.2356V60.5737H70.5273V61.3464C70.5273 62.5815 70.3982 63.4768 70.1403 64.0311C69.8807 64.5871 69.4531 64.8655 68.8566 64.8655Z"
          fill="#39AAE1"/>
    <path d="M75.1367 64.0628H75.8126C76.5249 64.0628 76.8803 63.8115 76.8803 63.3049C76.8803 63.0542 76.7873 62.8637 76.6024 62.7343C76.4172 62.6034 76.1547 62.5388 75.8126 62.5388H75.1367V64.0628ZM74.2402 64.8155V59.7937H75.1367V61.7867H75.8843C76.4534 61.7867 76.9119 61.9124 77.2601 62.1625C77.6095 62.4132 77.7834 62.7916 77.7834 63.2976C77.7834 63.799 77.6095 64.1766 77.2601 64.4318C76.9119 64.6877 76.4571 64.8155 75.8983 64.8155H74.2402Z"
          fill="#39AAE1"/>
    <path d="M79.1776 64.8155V60.5737H77.6338V59.7937H81.6173V60.5737H80.075V64.8155H79.1776Z" fill="#39AAE1"/>
    <path d="M82.7703 64.8861C82.5233 64.8861 82.3103 64.8655 82.1295 64.8236L82.2432 64.029C82.3803 64.0709 82.5212 64.0915 82.6627 64.0915C82.847 64.0915 82.996 64.0474 83.1072 63.9578C83.2186 63.8679 83.33 63.7164 83.4391 63.5041L83.5954 63.2057L81.6599 59.7937H82.6988L84.0997 62.3748L85.4224 59.7937H86.4264L84.3356 63.66C84.107 64.0855 83.885 64.3958 83.6698 64.5921C83.4537 64.7884 83.1538 64.8861 82.7703 64.8861Z"
          fill="#39AAE1"/>
    <path d="M87.8059 61.9853H88.4318C89.1764 61.9853 89.5488 61.739 89.5488 61.2472C89.5488 60.978 89.45 60.7936 89.2537 60.6935C89.0569 60.595 88.7923 60.5458 88.4606 60.5458H87.8059V61.9853ZM86.9102 64.8155V59.7937H88.5543C89.8186 59.7937 90.4527 60.2782 90.4527 61.2472C90.4527 61.7676 90.2728 62.1462 89.9114 62.3823C89.5509 62.6197 89.0799 62.7372 88.496 62.7372H87.8059V64.8155H86.9102Z"
          fill="#39AAE1"/>
    <path d="M95.489 64.8155V59.7937H96.3847V64.8155H95.489ZM92.1462 64.0628H92.8208C93.5322 64.0628 93.8883 63.8115 93.8883 63.3049C93.8883 63.0542 93.7961 62.8637 93.6112 62.7343C93.4269 62.6034 93.1629 62.5388 92.8208 62.5388H92.1462V64.0628ZM91.2496 64.8155V59.7937H92.1462V61.7867H92.8914C93.4613 61.7867 93.9201 61.9124 94.2687 62.1625C94.6166 62.4132 94.7916 62.7916 94.7916 63.2976C94.7916 63.799 94.6166 64.1766 94.2687 64.4318C93.9201 64.6877 93.4659 64.8155 92.9063 64.8155H91.2496Z"
          fill="#39AAE1"/>
    <path d="M99.2734 64.8155V59.7937H100.169V63.468H100.19L102.553 59.7937H103.52V64.8155H102.624V61.1707H102.609L100.255 64.8155H99.2734Z"
          fill="#39AAE1"/>
    <path d="M107.425 64.8155V60.5737H105.881V59.7937H109.865V60.5737H108.322V64.8155H107.425Z" fill="#39AAE1"/>
    <path d="M111.017 64.8861C110.771 64.8861 110.557 64.8655 110.377 64.8236L110.491 64.029C110.629 64.0709 110.768 64.0915 110.911 64.0915C111.095 64.0915 111.244 64.0474 111.355 63.9578C111.467 63.8679 111.577 63.7164 111.687 63.5041L111.842 63.2057L109.908 59.7937H110.946L112.347 62.3748L113.671 59.7937H114.673L112.582 63.66C112.355 64.0855 112.133 64.3958 111.917 64.5921C111.702 64.7884 111.402 64.8861 111.017 64.8861Z"
          fill="#39AAE1"/>
    <path d="M116.053 61.9853H116.679C117.424 61.9853 117.796 61.739 117.796 61.2472C117.796 60.978 117.698 60.7936 117.502 60.6935C117.305 60.595 117.04 60.5458 116.707 60.5458H116.053V61.9853ZM115.158 64.8155V59.7937H116.801C118.067 59.7937 118.699 60.2782 118.699 61.2472C118.699 61.7676 118.52 62.1462 118.159 62.3823C117.799 62.6197 117.327 62.7372 116.744 62.7372H116.053V64.8155H115.158Z"
          fill="#39AAE1"/>
    <path d="M119.497 64.8155V59.7937H120.393V63.468H120.414L122.776 59.7937H123.743V64.8155H122.847V61.1707H122.834L120.479 64.8155H119.497Z"
          fill="#39AAE1"/>
    <path d="M126.276 64.9427C125.488 64.9427 124.877 64.7002 124.441 64.2127L125.045 63.6099C125.344 63.992 125.74 64.184 126.233 64.184C126.508 64.184 126.748 64.1098 126.952 63.9606C127.155 63.812 127.258 63.6099 127.258 63.3548C127.258 62.8534 126.863 62.6027 126.077 62.6027H125.721V61.8506H126.091C126.779 61.8506 127.122 61.6022 127.122 61.1052C127.122 60.9023 127.034 60.7362 126.855 60.6053C126.677 60.4751 126.473 60.4104 126.24 60.4104C125.794 60.4104 125.443 60.5692 125.187 60.886L124.626 60.3325C125.019 59.8884 125.573 59.6665 126.29 59.6665C126.812 59.6665 127.23 59.7855 127.541 60.0237C127.854 60.2627 128.011 60.5934 128.011 61.014C128.011 61.3074 127.93 61.5543 127.769 61.7587C127.607 61.9617 127.4 62.097 127.143 62.1624V62.1845C127.446 62.2543 127.696 62.3968 127.891 62.6094C128.086 62.8226 128.182 63.0893 128.182 63.4113C128.182 63.8885 127.997 64.2632 127.624 64.5355C127.251 64.8075 126.802 64.9427 126.276 64.9427Z"
          fill="#39AAE1"/>
    <path d="M129.064 64.8155V59.7937H130.466L131.774 63.3615H131.796L133.091 59.7937H134.499V64.8155H133.609V60.7796H133.595L132.066 64.8155H131.439L129.933 60.7796H129.918V64.8155H129.064Z"
          fill="#39AAE1"/>
    <path d="M136.76 62.9006H138.326L137.552 60.8582L136.76 62.9006ZM134.997 64.8155L137.187 59.7937H137.964L140.133 64.8155H139.108L138.639 63.6666H136.455L136 64.8155H134.997Z"
          fill="#39AAE1"/>
    <path d="M143.561 62.9006H145.126L144.351 60.8582L143.561 62.9006ZM141.797 64.8155L143.988 59.7937H144.764L146.933 64.8155H145.908L145.439 63.6666H143.256L142.801 64.8155H141.797Z"
          fill="#39AAE1"/>
    <path d="M148.554 64.0209H150.938V60.5737H149.18V61.1766C149.18 62.4719 148.972 63.4203 148.554 64.0209ZM147.118 65.9579V64.0209H147.545C148.057 63.4401 148.313 62.4609 148.313 61.0855V59.7937H151.834V64.0209H152.396V65.9579H151.592V64.8155H147.921V65.9579H147.118Z"
          fill="#39AAE1"/>
    <path d="M153.107 64.8155V59.7937H154.508L155.817 63.3615H155.839L157.133 59.7937H158.541V64.8155H157.653V60.7796H157.639L156.109 64.8155H155.484L153.976 60.7796H153.961V64.8155H153.107Z"
          fill="#39AAE1"/>
    <path d="M159.651 64.8155V59.7937H160.548V63.468H160.569L162.93 59.7937H163.898V64.8155H163.001V61.1707H162.988L160.633 64.8155H159.651Z"
          fill="#39AAE1"/>
    <path d="M165.008 64.8155V59.7937H165.904V61.8228H168.259V59.7937H169.155V64.8155H168.259V62.5888H165.904V64.8155H165.008Z"
          fill="#39AAE1"/>
    <path d="M170.265 64.8155V59.7937H171.16V63.468H171.182L173.544 59.7937H174.511V64.8155H173.615V61.1707H173.601L171.246 64.8155H170.265Z"
          fill="#39AAE1"/>
    <path d="M179.939 60.4325L179.256 60.9714C179.133 60.8016 178.965 60.6722 178.754 60.5847C178.544 60.4971 178.328 60.4523 178.11 60.4523C177.598 60.4523 177.18 60.628 176.855 60.9779C176.53 61.328 176.368 61.7646 176.368 62.2903C176.368 62.8386 176.523 63.2841 176.834 63.6282C177.144 63.9702 177.559 64.1421 178.075 64.1421C178.606 64.1421 179.014 63.9481 179.298 63.5607L180.017 64.0627C179.547 64.6491 178.898 64.9427 178.068 64.9427C177.28 64.9427 176.635 64.6964 176.133 64.2015C175.631 63.7084 175.379 63.071 175.379 62.2903C175.379 61.5014 175.636 60.8662 176.15 60.3854C176.665 59.9053 177.318 59.6665 178.11 59.6665C178.462 59.6665 178.806 59.7311 179.147 59.8614C179.484 59.9908 179.749 60.1818 179.939 60.4325Z"
          fill="#39AAE1"/>
    <path d="M181.731 64.8155V60.5737H180.188V59.7937H184.171V60.5737H182.627V64.8155H181.731Z" fill="#39AAE1"/>
    <path d="M185.651 61.9853H186.277C187.021 61.9853 187.394 61.739 187.394 61.2472C187.394 60.978 187.296 60.7936 187.099 60.6935C186.902 60.595 186.637 60.5458 186.305 60.5458H185.651V61.9853ZM184.755 64.8155V59.7937H186.397C187.664 59.7937 188.298 60.2782 188.298 61.2472C188.298 61.7676 188.117 62.1462 187.756 62.3823C187.396 62.6197 186.924 62.7372 186.34 62.7372H185.651V64.8155H184.755Z"
          fill="#39AAE1"/>
    <path d="M189.82 62.9006H191.384L190.608 60.8582L189.82 62.9006ZM188.055 64.8155L190.245 59.7937H191.022L193.191 64.8155H192.167L191.697 63.6666H189.514L189.058 64.8155H188.055Z"
          fill="#39AAE1"/>
    <path d="M197.545 65.9579V64.8155H193.689V59.7937H194.586V64.0209H196.898V59.7937H197.793V64.0209H198.349V65.9579H197.545Z"
          fill="#39AAE1"/>
    <path d="M199.06 64.8155V59.7937H199.957V63.468H199.978L202.34 59.7937H203.307V64.8155H202.41V61.1707H202.396L200.042 64.8155H199.06Z"
          fill="#39AAE1"/>
    <path d="M204.417 64.8155V59.7937H205.314V63.468H205.335L207.696 59.7937H208.664V64.8155H207.767V61.1707H207.753L205.399 64.8155H204.417Z"
          fill="#39AAE1"/>
    <path d="M56.8321 72.3904H57.4584C58.2028 72.3904 58.5744 72.1455 58.5744 71.6535C58.5744 71.3838 58.4764 71.1992 58.2806 71.1002C58.0829 71.0008 57.8193 70.9504 57.4872 70.9504H56.8321V72.3904ZM55.9357 75.2213V70.1987H57.5794C58.845 70.1987 59.4793 70.6841 59.4793 71.6535C59.4793 72.1732 59.2988 72.5512 58.9387 72.7882C58.5782 73.0239 58.1054 73.1431 57.5223 73.1431H56.8321V75.2213H55.9357Z"
          fill="#39AAE1"/>
    <path d="M62.082 72.4829H62.7508V70.9504H62.0542C61.342 70.9504 60.9863 71.2044 60.9863 71.7104C60.9863 71.9707 61.0837 72.1638 61.2787 72.2912C61.473 72.4189 61.7408 72.4829 62.082 72.4829ZM59.8553 75.2213L61.2074 73.0922C60.8561 73.0026 60.5832 72.8382 60.3896 72.596C60.1949 72.3551 60.0971 72.0521 60.0971 71.6883C60.0971 71.1775 60.2649 70.8024 60.599 70.5611C60.9338 70.3202 61.3995 70.1987 61.9972 70.1987H63.6467V75.2213H62.7508V73.2129H62.1245L60.9437 75.2213H59.8553Z"
          fill="#39AAE1"/>
    <path d="M66.1795 75.3496C65.3918 75.3496 64.7806 75.1045 64.3444 74.6173L64.9496 74.015C65.2478 74.3989 65.6437 74.5885 66.1371 74.5885C66.4121 74.5885 66.6518 74.515 66.8556 74.3664C67.0587 74.2172 67.1616 74.015 67.1616 73.7591C67.1616 73.2586 66.7678 73.0079 65.9801 73.0079H65.6244V72.2558H65.9946C66.6821 72.2558 67.0261 72.0089 67.0261 71.5117C67.0261 71.3083 66.9369 71.1413 66.7597 71.0113C66.5812 70.8802 66.3762 70.8165 66.1444 70.8165C65.698 70.8165 65.3475 70.9736 65.0917 71.2908L64.5287 70.7379C64.9222 70.2936 65.4777 70.071 66.1937 70.071C66.716 70.071 67.1331 70.1909 67.446 70.4291C67.7595 70.6681 67.9156 70.998 67.9156 71.4185C67.9156 71.7119 67.8349 71.9611 67.6736 72.1639C67.5122 72.3669 67.3035 72.5021 67.0477 72.5678V72.5894C67.3511 72.6601 67.5996 72.802 67.794 73.0154C67.9881 73.2275 68.0859 73.4947 68.0859 73.8166C68.0859 74.2945 67.8997 74.6685 67.5273 74.9405C67.1551 75.2124 66.706 75.3496 66.1795 75.3496Z"
          fill="#39AAE1"/>
    <path d="M70.1206 73.3056H71.6847L70.9098 71.2628L70.1206 73.3056ZM68.3568 75.2213L70.547 70.1987H71.3234L73.4921 75.2213H72.4672L71.9978 74.0714H69.8149L69.3589 75.2213H68.3568Z"
          fill="#39AAE1"/>
    <path d="M73.9903 75.2213V70.1987H74.8862V72.227H77.2409V70.1987H78.1374V75.2213H77.2409V72.9932H74.8862V75.2213H73.9903Z"
          fill="#39AAE1"/>
    <path d="M83.5653 70.8369L82.8817 71.376C82.7586 71.2059 82.5912 71.0772 82.3797 70.99C82.1688 70.9023 81.9535 70.859 81.736 70.859C81.2244 70.859 80.8064 71.0334 80.4804 71.3839C80.156 71.734 79.9932 72.1706 79.9932 72.6955C79.9932 73.244 80.1479 73.6908 80.4599 74.0328C80.7694 74.376 81.1838 74.5466 81.7013 74.5466C82.2321 74.5466 82.6399 74.3533 82.9253 73.9659L83.6426 74.4693C83.173 75.0555 82.5235 75.3496 81.694 75.3496C80.9059 75.3496 80.2607 75.1016 79.7587 74.6077C79.2565 74.113 79.0051 73.4763 79.0051 72.6955C79.0051 71.9061 79.2626 71.2714 79.7763 70.7906C80.2902 70.3119 80.9441 70.071 81.736 70.071C82.0869 70.071 82.4328 70.1371 82.772 70.2665C83.1111 70.3966 83.3749 70.5862 83.5653 70.8369Z"
          fill="#39AAE1"/>
    <path d="M84.1971 75.2213V70.1987H85.0936V72.3689H85.1149L87.2205 70.1987H88.4297L86.0757 72.5183L88.586 75.2213H87.3275L85.1149 72.7029H85.0936V75.2213H84.1971Z"
          fill="#39AAE1"/>
    <path d="M89.5468 72.6955C89.5468 73.235 89.7082 73.6777 90.0304 74.0263C90.3533 74.3731 90.7684 74.5466 91.2764 74.5466C91.788 74.5466 92.206 74.3731 92.5283 74.0263C92.8512 73.6777 93.0119 73.235 93.0119 72.6955C93.0119 72.1706 92.852 71.734 92.5312 71.3839C92.2112 71.0334 91.7932 70.859 91.2764 70.859C90.764 70.859 90.3481 71.0334 90.0275 71.3839C89.7075 71.734 89.5468 72.1706 89.5468 72.6955ZM88.5727 72.6955C88.5727 71.9009 88.8256 71.2658 89.3293 70.7879C89.8356 70.3105 90.4816 70.071 91.2689 70.071C92.0651 70.071 92.7176 70.3105 93.225 70.7879C93.7323 71.2658 93.9866 71.9009 93.9866 72.6955C93.9866 73.4763 93.7314 74.113 93.2219 74.6077C92.7118 75.1016 92.0601 75.3496 91.2689 75.3496C90.4866 75.3496 89.8417 75.1016 89.3336 74.6077C88.8271 74.113 88.5727 73.4763 88.5727 72.6955Z"
          fill="#39AAE1"/>
    <path d="M94.8535 75.2213V70.1987H97.8771V70.9787H95.75V75.2213H94.8535Z" fill="#39AAE1"/>
    <path d="M98.9793 72.6955C98.9793 73.235 99.14 73.6777 99.4622 74.0263C99.7851 74.3731 100.201 74.5466 100.709 74.5466C101.22 74.5466 101.638 74.3731 101.96 74.0263C102.283 73.6777 102.444 73.235 102.444 72.6955C102.444 72.1706 102.284 71.734 101.964 71.3839C101.643 71.0334 101.225 70.859 100.709 70.859C100.196 70.859 99.7799 71.0334 99.4591 71.3839C99.1391 71.734 98.9793 72.1706 98.9793 72.6955ZM98.0054 72.6955C98.0054 71.9009 98.2582 71.2658 98.7625 70.7879C99.2675 70.3105 99.9134 70.071 100.701 70.071C101.498 70.071 102.15 70.3105 102.657 70.7879C103.164 71.2658 103.419 71.9009 103.419 72.6955C103.419 73.4763 103.163 74.113 102.653 74.6077C102.144 75.1016 101.493 75.3496 100.701 75.3496C99.9185 75.3496 99.2733 75.1016 98.7655 74.6077C98.2589 74.113 98.0054 73.4763 98.0054 72.6955Z"
          fill="#39AAE1"/>
    <path d="M106.064 75.2213V70.1987H107.466L108.775 73.7666H108.796L110.091 70.1987H111.5V75.2213H110.61V71.1854H110.596L109.067 75.2213H108.44L106.932 71.1854H106.917V75.2213H106.064Z"
          fill="#39AAE1"/>
    <path d="M113.094 75.292C112.847 75.292 112.633 75.2699 112.453 75.228L112.567 74.4326C112.704 74.4753 112.844 74.4974 112.986 74.4974C113.171 74.4974 113.319 74.4518 113.43 74.3621C113.542 74.2732 113.652 74.1215 113.762 73.9093L113.918 73.6107L111.983 70.1987H113.022L114.423 72.7807L115.746 70.1987H116.749L114.658 74.0644C114.43 74.4899 114.207 74.801 113.992 74.9971C113.776 75.194 113.476 75.292 113.094 75.292Z"
          fill="#39AAE1"/>
    <path d="M117.233 75.2213V70.1987H118.129V72.227H120.483V70.1987H121.38V75.2213H120.483V72.9932H118.129V75.2213H117.233Z"
          fill="#39AAE1"/>
    <path d="M122.49 75.2213V70.1987H123.386V73.873H123.406L125.768 70.1987H126.737V75.2213H125.84V71.5751H125.825L123.472 75.2213H122.49Z"
          fill="#39AAE1"/>
    <path d="M131.701 76.3623V75.2213H127.846V70.1987H128.742V74.4267H131.054V70.1987H131.951V74.4267H132.506V76.3623H131.701Z"
          fill="#39AAE1"/>
    <path d="M133.216 75.2213V70.1987H134.112V73.873H134.134L136.496 70.1987H137.463V75.2213H136.567V71.5751H136.553L134.198 75.2213H133.216Z"
          fill="#39AAE1"/>
    <path d="M138.572 75.2213V70.1987H142.677V75.2213H141.781V70.9787H139.468V75.2213H138.572Z" fill="#39AAE1"/>
    <path d="M144.939 73.3056H146.503L145.728 71.2628L144.939 73.3056ZM143.175 75.2213L145.366 70.1987H146.141L148.311 75.2213H147.287L146.817 74.0714H144.632L144.178 75.2213H143.175Z"
          fill="#39AAE1"/>
    <path d="M148.987 75.2699C148.745 75.2699 148.546 75.2463 148.39 75.1986L148.481 74.4122C148.58 74.4457 148.684 74.462 148.788 74.462C149.144 74.462 149.4 74.2538 149.559 73.8378C149.717 73.4211 149.798 72.6859 149.798 71.6316V70.1987H153.262V75.2213H152.366V70.9787H150.658V71.7529C150.658 72.9866 150.528 73.8806 150.27 74.4363C150.012 74.9927 149.584 75.2699 148.987 75.2699Z"
          fill="#39AAE1"/>
    <path d="M155.267 74.4692H155.943C156.656 74.4692 157.01 74.2165 157.01 73.7099C157.01 73.4594 156.917 73.2689 156.732 73.1387C156.547 73.0093 156.286 72.9438 155.943 72.9438H155.267V74.4692ZM154.372 75.2213V70.1987H155.267V72.1918H156.014C156.584 72.1918 157.043 72.3174 157.391 72.5677C157.739 72.8184 157.914 73.1968 157.914 73.7026C157.914 74.2048 157.739 74.5832 157.391 74.8377C157.043 75.0936 156.588 75.2213 156.029 75.2213H154.372Z"
          fill="#39AAE1"/>
    <path d="M158.717 75.2213V70.1987H159.613V72.227H161.968V70.1987H162.864V75.2213H161.968V72.9932H159.613V75.2213H158.717Z"
          fill="#39AAE1"/>
    <path d="M164.707 72.6955C164.707 73.235 164.868 73.6777 165.191 74.0263C165.513 74.3731 165.928 74.5466 166.435 74.5466C166.948 74.5466 167.365 74.3731 167.687 74.0263C168.01 73.6777 168.172 73.235 168.172 72.6955C168.172 72.1706 168.011 71.734 167.691 71.3839C167.371 71.0334 166.952 70.859 166.435 70.859C165.923 70.859 165.507 71.0334 165.187 71.3839C164.867 71.734 164.707 72.1706 164.707 72.6955ZM163.732 72.6955C163.732 71.9009 163.985 71.2658 164.49 70.7879C164.995 70.3105 165.641 70.071 166.428 70.071C167.225 70.071 167.877 70.3105 168.386 70.7879C168.891 71.2658 169.146 71.9009 169.146 72.6955C169.146 73.4763 168.89 74.113 168.381 74.6077C167.871 75.1016 167.22 75.3496 166.428 75.3496C165.646 75.3496 165.001 75.1016 164.493 74.6077C163.986 74.113 163.732 73.4763 163.732 72.6955Z"
          fill="#39AAE1"/>
    <path d="M170.013 75.2213V70.1987H173.036V70.9787H170.91V75.2213H170.013Z" fill="#39AAE1"/>
    <path d="M174.138 72.6955C174.138 73.235 174.3 73.6777 174.623 74.0263C174.945 74.3731 175.361 74.5466 175.868 74.5466C176.38 74.5466 176.797 74.3731 177.119 74.0263C177.442 73.6777 177.604 73.235 177.604 72.6955C177.604 72.1706 177.443 71.734 177.124 71.3839C176.803 71.0334 176.384 70.859 175.868 70.859C175.356 70.859 174.939 71.0334 174.619 71.3839C174.299 71.734 174.138 72.1706 174.138 72.6955ZM173.164 72.6955C173.164 71.9009 173.417 71.2658 173.923 70.7879C174.427 70.3105 175.073 70.071 175.86 70.071C176.657 70.071 177.309 70.3105 177.817 70.7879C178.323 71.2658 178.578 71.9009 178.578 72.6955C178.578 73.4763 178.322 74.113 177.813 74.6077C177.304 75.1016 176.653 75.3496 175.86 75.3496C175.078 75.3496 174.433 75.1016 173.925 74.6077C173.418 74.113 173.164 73.4763 173.164 72.6955Z"
          fill="#39AAE1"/>
    <path d="M182.12 72.3904H182.746C183.491 72.3904 183.863 72.1455 183.863 71.6535C183.863 71.3838 183.764 71.1992 183.568 71.1002C183.371 71.0008 183.107 70.9504 182.774 70.9504H182.12V72.3904ZM181.224 75.2213V70.1987H182.868C184.133 70.1987 184.766 70.6841 184.766 71.6535C184.766 72.1732 184.586 72.5512 184.226 72.7882C183.865 73.0239 183.394 73.1431 182.811 73.1431H182.12V75.2213H181.224Z"
          fill="#39AAE1"/>
    <path d="M186.289 73.3056H187.855L187.079 71.2628L186.289 73.3056ZM184.524 75.2213L186.716 70.1987H187.492L189.662 75.2213H188.637L188.168 74.0714H185.983L185.528 75.2213H184.524Z"
          fill="#39AAE1"/>
    <path d="M192.25 69.802C191.941 69.802 191.683 69.7143 191.475 69.5394C191.267 69.3646 191.143 69.1233 191.105 68.8161L191.581 68.7234C191.605 68.8845 191.678 69.0116 191.799 69.1064C191.92 69.2012 192.069 69.2492 192.25 69.2492C192.43 69.2492 192.581 69.2012 192.702 69.1064C192.822 69.0116 192.895 68.8845 192.918 68.7234L193.402 68.8161C193.36 69.1233 193.235 69.3646 193.029 69.5394C192.822 69.7143 192.563 69.802 192.25 69.802ZM190.158 75.2214V70.1988H191.054V73.8731H191.076L193.438 70.1988H194.406V75.2214H193.509V71.5752H193.495L191.14 75.2214H190.158Z"
          fill="#39AAE1"/>
    <path d="M196.248 72.6955C196.248 73.235 196.409 73.6777 196.731 74.0263C197.054 74.3731 197.469 74.5466 197.976 74.5466C198.489 74.5466 198.906 74.3731 199.229 74.0263C199.551 73.6777 199.712 73.235 199.712 72.6955C199.712 72.1706 199.552 71.734 199.232 71.3839C198.911 71.0334 198.493 70.859 197.976 70.859C197.464 70.859 197.048 71.0334 196.727 71.3839C196.408 71.734 196.248 72.1706 196.248 72.6955ZM195.272 72.6955C195.272 71.9009 195.526 71.2658 196.03 70.7879C196.536 70.3105 197.182 70.071 197.969 70.071C198.766 70.071 199.419 70.3105 199.926 70.7879C200.433 71.2658 200.686 71.9009 200.686 72.6955C200.686 73.4763 200.432 74.113 199.921 74.6077C199.412 75.1016 198.761 75.3496 197.969 75.3496C197.186 75.3496 196.541 75.1016 196.035 74.6077C195.527 74.113 195.272 73.4763 195.272 72.6955Z"
          fill="#39AAE1"/>
    <path d="M201.555 75.2213V70.1987H202.452V72.227H204.806V70.1987H205.702V75.2213H204.806V72.9932H202.452V75.2213H201.555Z"
          fill="#39AAE1"/>
    <path d="M207.964 73.3056H209.528L208.753 71.2628L207.964 73.3056ZM206.2 75.2213L208.39 70.1987H209.165L211.336 75.2213H210.311L209.841 74.0714H207.658L207.203 75.2213H206.2Z"
          fill="#39AAE1"/>
    <path d="M135.58 122.796C135.58 122.796 201.591 93.5076 271.161 116.565V74.1871L259.512 64.5272V97.5571C259.512 97.5571 193.596 92.5934 135.58 116.952C77.5642 92.5934 11.6495 97.5571 11.6495 97.5571V64.5272L0 74.1871V116.565C69.5701 93.5076 135.58 122.796 135.58 122.796Z"
          fill="#E51170"/>
    <path d="M250.128 57.985V89.1439C250.128 89.1439 211.298 88.8336 170.528 100.362C170.528 100.362 200.621 84.4703 241.069 79.173V50.8188L250.128 57.985Z"
          fill="#39AAE1"/>
    <path d="M21.0322 57.985V89.1439C21.0322 89.1439 68.275 90.7022 100.633 100.362C100.633 100.362 72.1585 84.7814 30.0934 79.173V50.8188L21.0322 57.985Z"
          fill="#39AAE1"/>
    <path d="M135.316 138.352H135.449V85.5858H135.316V138.352Z" fill="#E51170"/>
    <path d="M109.038 111.949H162.359V111.818H109.038V111.949Z" fill="#E51170"/>
    <path d="M135.789 90.6906C123.952 90.6906 114.321 100.293 114.321 112.095C114.321 123.9 123.952 133.503 135.789 133.503C147.627 133.503 157.258 123.9 157.258 112.095C157.258 100.293 147.627 90.6906 135.789 90.6906ZM135.789 133.721C123.831 133.721 114.101 124.02 114.101 112.095C114.101 100.172 123.831 90.4707 135.789 90.4707C147.747 90.4707 157.478 100.172 157.478 112.095C157.478 124.02 147.747 133.721 135.789 133.721Z"
          fill="#E51170" stroke="#E51170" stroke-width="0.1" stroke-miterlimit="10"/>
    <path d="M135.789 89.8923C123.51 89.8923 113.521 99.8535 113.521 112.095C113.521 124.339 123.51 134.3 135.789 134.3C148.068 134.3 158.058 124.339 158.058 112.095C158.058 99.8535 148.068 89.8923 135.789 89.8923ZM135.789 134.519C123.39 134.519 113.301 124.461 113.301 112.095C113.301 99.7316 123.39 89.6726 135.789 89.6726C148.188 89.6726 158.277 99.7316 158.277 112.095C158.277 124.461 148.188 134.519 135.789 134.519Z"
          fill="#E51170" stroke="#E51170" stroke-width="0.1" stroke-miterlimit="10"/>
    <path d="M135.789 86.5678C121.673 86.5678 110.188 98.0203 110.188 112.095C110.188 126.172 121.673 137.624 135.789 137.624C149.906 137.624 161.391 126.172 161.391 112.095C161.391 98.0203 149.906 86.5678 135.789 86.5678ZM135.789 139.376C120.703 139.376 108.43 127.138 108.43 112.095C108.43 97.0534 120.703 84.8154 135.789 84.8154C150.876 84.8154 163.148 97.0534 163.148 112.095C163.148 127.138 150.876 139.376 135.789 139.376Z"
          fill="#E51170"/>
    <path d="M135.789 83.6117C120.037 83.6117 107.222 96.3894 107.222 112.095C107.222 127.803 120.037 140.581 135.789 140.581C151.541 140.581 164.357 127.803 164.357 112.095C164.357 96.3894 151.541 83.6117 135.789 83.6117ZM135.789 140.799C119.916 140.799 107.003 127.924 107.003 112.095C107.003 96.2689 119.916 83.3927 135.789 83.3927C151.662 83.3927 164.576 96.2689 164.576 112.095C164.576 127.924 151.662 140.799 135.789 140.799Z"
          fill="#E51469" stroke="#E51170" stroke-width="0.1" stroke-miterlimit="10"/>
    <path d="M130.551 100.607L135.789 112.095L135.728 112.07L121.068 97.0062L130.551 100.607Z" fill="#FEFEFE"/>
    <path d="M124.347 106.96L135.789 112.149V112.166L108.369 111.659L124.347 106.96Z" fill="#FEFEFE"/>
    <path d="M135.728 112.237L135.675 112.359L121.068 126.924L123.881 116.776L133.838 112.937L135.728 112.237Z"
          fill="#FEFEFE"/>
    <path d="M130.684 123.584L135.781 112.394L135.35 139.342L130.684 123.584Z" fill="#FEFEFE"/>
    <path d="M135.974 112.14L150.51 126.924L140.421 123.857L136.826 114.515L135.939 112.149L135.974 112.14Z"
          fill="#FEFEFE"/>
    <path d="M163.131 111.604L148.181 116.628L136.334 112.035L163.131 111.604Z" fill="#FEFEFE"/>
    <path d="M150.51 97.0062L147.848 106.521L136.685 111.684L136.105 111.947L136.088 111.94L150.51 97.0062Z"
          fill="#FEFEFE"/>
    <path d="M135.789 111.824L135.843 111.956V111.964L135.789 112.095L135.235 85.1121L135.148 85.0873L135.271 84.6764L140.377 99.8182L135.878 111.859L135.789 111.824Z"
          fill="#FEFEFE"/>
    <path d="M121.068 97.0062L135.728 112.07L124.443 106.926L121.068 97.0062Z" fill="#E51170"/>
    <path d="M135.789 112.166V112.211L135.728 112.237L135.745 112.201L133.838 112.937L123.556 116.75L108.369 111.659L135.789 112.166Z"
          fill="#E51170"/>
    <path d="M121.068 126.924L135.675 112.359L130.508 123.69L121.068 126.924Z" fill="#E51170"/>
    <path d="M135.903 112.131L136.826 114.515L140.509 124.373L135.403 139.517L135.35 139.342L135.781 112.394L135.895 112.149V112.14L135.903 112.131Z"
          fill="#E51170"/>
    <path d="M135.948 112.078L148.181 116.628L150.51 126.924L135.974 112.14L135.939 112.149L135.929 112.104L135.948 112.078Z"
          fill="#E51170"/>
    <path d="M163.368 111.526L163.131 111.604L136.334 112.035L136.105 111.947L136.685 111.684L147.391 106.83L163.368 111.526Z"
          fill="#E51170"/>
    <path d="M150.51 97.0062L136.088 111.94L135.878 111.859L140.421 100.064L150.51 97.0062Z" fill="#E51170"/>
    <path d="M135.235 85.1122L135.789 112.095L130.551 100.607L135.148 85.0874L135.235 85.1122Z" fill="#E51170"/>
    <path d="M135.98 111.897L135.774 111.821L140.261 99.8168L135.277 85.0382L135.252 85.1174L130.657 100.638L130.446 100.576L135.265 84.3126L135.376 84.6396L140.494 99.8198L140.479 99.8573L135.98 111.897Z"
          fill="#E51170"/>
    <path d="M130.801 123.593L135.409 139.155L140.392 124.376L135.909 112.381L135.881 112.44L130.801 123.593ZM135.396 139.878L135.244 139.374L130.565 123.578L130.583 123.54L135.796 112.102L135.839 112.124L135.877 112.116L135.817 112.062L135.823 112.048L135.889 111.915L136.023 112.042L136.046 112.127L136.93 114.477L140.626 124.372L140.614 124.409L135.396 139.878Z"
          fill="#E51170"/>
    <path d="M148.18 116.743L148.144 116.729L135.852 112.167L135.903 111.955L135.974 111.972L148.183 116.511L163.002 111.532L147.399 106.946L136.731 111.785L136.64 111.585L147.383 106.713L147.422 106.724L163.735 111.52L163.166 111.709L148.18 116.743Z"
          fill="#E51170"/>
    <path d="M124.532 106.846L135.568 111.877L130.47 100.694L121.247 97.1909L124.532 106.846ZM136.007 112.309L135.684 112.171L124.355 107.004L124.339 106.96L120.89 96.8196L130.633 100.521L130.652 100.561L136.007 112.309Z"
          fill="#E51170"/>
    <path d="M135.593 112.292L135.74 111.923L135.833 111.961L135.836 111.959L135.838 111.963L135.944 112.005L135.9 112.117L135.918 112.163L135.593 112.292Z"
          fill="#E51170"/>
    <path d="M136.102 112.067L136.022 111.862L136.066 111.845L136.64 111.585L147.755 106.444L150.351 97.1688L140.504 100.153L135.945 111.993L135.738 111.918L135.774 111.821L140.338 99.9742L140.389 99.9596L150.669 96.8423L147.94 106.601L147.894 106.622L136.102 112.067Z"
          fill="#E51170"/>
    <path d="M140.504 123.767L150.361 126.765L148.087 116.708L135.985 112.016L136.006 112.094L136.929 114.476L140.504 123.767ZM150.66 127.083L150.478 127.028L140.338 123.946L140.318 123.895L135.593 111.628L136.374 111.932L148.276 116.545L150.66 127.083Z"
          fill="#E51170"/>
    <path d="M123.971 116.858L121.23 126.752L130.427 123.603L135.536 112.4L123.971 116.858ZM120.907 127.096L123.79 116.694L123.842 116.673L135.97 111.997L135.776 112.402L130.588 123.777L130.543 123.793L120.907 127.096Z"
          fill="#E51170"/>
    <path d="M108.734 111.665L123.554 116.632L135.581 112.174L124.339 107.076L108.734 111.665ZM123.558 116.866L123.52 116.853L108.004 111.651L124.355 106.844L124.392 106.861L135.853 112.054L135.822 112.142L135.855 112.309L135.771 112.337L123.558 116.866Z"
          fill="#E51170"/>
    <path d="M135.679 112.099L135.126 82.1424L135.346 82.1372L135.9 112.094L135.679 112.099Z" fill="#E51170"/>
    <path d="M135.24 142V141.968L135.679 112.095H135.9L135.89 112.43L135.46 141.973L135.24 142Z" fill="#E51170"/>
    <path d="M135.911 112.153H135.843V111.935L136.394 111.925L166.666 111.495V111.715H166.586L135.911 112.153Z"
          fill="#E51170"/>
    <path d="M135.807 112.276L105.01 111.767L105.015 111.548L135.79 112.056L135.807 112.276Z" fill="#E51170"/>
    <path d="M135.981 112.209L135.817 112.062L136.011 111.86L150.432 96.9301L150.589 97.0822L135.981 112.209Z"
          fill="#E51170"/>
    <path d="M121.146 127.001L120.991 126.847L135.782 112.104L135.911 112.279L135.903 112.287V112.289L135.9 112.291L135.752 112.436L121.146 127.001Z"
          fill="#E51170"/>
    <path d="M150.432 127L135.894 112.217L136.053 112.064L150.588 126.847L150.432 127Z" fill="#E51170"/>
    <path d="M135.792 112.276L135.783 112.271L135.779 112.276L135.65 112.147L120.988 97.0822L121.147 96.9301L135.961 112.124V112.184L135.861 112.191L135.792 112.276Z"
          fill="#E51170"/>
    <path d="M74.6981 50.3451V39.5287C74.6981 38.6136 74.6352 38.0203 74.5139 37.7394C74.3925 37.4631 73.9407 37.2682 73.1664 37.1641L72.7605 37.1099C72.5012 37.0736 72.2959 36.9875 72.1538 36.8471C72.0115 36.7021 71.9402 36.5166 71.9402 36.2855C71.9402 35.9956 72.0324 35.7783 72.2205 35.6378C72.409 35.4974 72.7647 35.4248 73.2878 35.4248C73.7856 35.4248 74.5307 35.443 75.5181 35.4792C76.51 35.5155 77.2465 35.529 77.7403 35.529C78.481 35.529 79.6068 35.5155 81.1048 35.4792C82.607 35.443 83.7368 35.4248 84.4944 35.4248C86.5617 35.4248 88.1726 35.9277 89.3191 36.9377C90.47 37.9478 91.0433 39.4063 91.0433 41.3179C91.0433 42.7627 90.4993 44.0493 89.4113 45.1862C88.3233 46.323 86.6871 46.8938 84.4944 46.8938C84.0466 46.8938 83.6405 46.8621 83.2766 46.7942C82.9124 46.726 82.4814 46.6039 81.9836 46.4272C81.8035 46.3682 81.6612 46.323 81.5608 46.3049C81.4564 46.2824 81.3723 46.2686 81.3099 46.2686C81.2177 46.2686 81.1508 46.2959 81.1132 46.3501C81.0712 46.4045 81.0505 46.5133 81.0505 46.6808V50.3451C81.0505 51.4415 81.1466 52.1027 81.3433 52.3201C81.5399 52.533 81.9542 52.6645 82.5818 52.7098L83.3059 52.7777C83.5527 52.7958 83.7496 52.8729 83.9086 53.0134C84.0633 53.1582 84.1387 53.3485 84.1387 53.584C84.1387 53.8784 84.0466 54.0958 83.8583 54.2362C83.67 54.3767 83.3101 54.4492 82.7786 54.4492C82.2304 54.4492 81.406 54.4311 80.3096 54.3948C79.2091 54.3585 78.3848 54.345 77.8365 54.345C77.3386 54.345 76.5852 54.3585 75.5769 54.3948C74.5639 54.4311 73.8025 54.4492 73.2878 54.4492C72.7647 54.4492 72.409 54.3767 72.2205 54.2362C72.0324 54.0958 71.9402 53.8784 71.9402 53.584C71.9402 53.3485 72.0115 53.1626 72.1538 53.0269C72.2959 52.8954 72.5012 52.814 72.7605 52.7777L73.1664 52.7098C73.9407 52.6147 74.3925 52.4243 74.5139 52.139C74.6352 51.8581 74.6981 51.2602 74.6981 50.3451ZM81.0505 38.0747V43.8771C81.0505 44.117 81.1172 44.2802 81.2469 44.3708C81.3767 44.4569 81.6319 44.5021 82.0045 44.5021C82.7744 44.5021 83.3939 44.2395 83.8624 43.714C84.3312 43.1886 84.5655 42.3642 84.5655 41.2408C84.5655 40.0223 84.3185 39.0802 83.8248 38.4234C83.331 37.7667 82.6739 37.436 81.858 37.436C81.5483 37.436 81.3349 37.4858 81.2219 37.5808C81.109 37.6804 81.0505 37.8436 81.0505 38.0747ZM108.732 50.3451L108.485 42.9529C108.477 42.722 108.456 42.4865 108.414 42.2465C108.372 42.0108 108.326 41.8887 108.28 41.8887C108.239 41.8887 108.18 41.9702 108.1 42.1285C108.025 42.2871 107.916 42.5453 107.774 42.8987L104.033 52.6056C103.731 53.3893 103.497 53.8965 103.334 54.1185C103.171 54.3404 102.828 54.4492 102.304 54.4492C101.798 54.4492 101.472 54.354 101.325 54.1683C101.179 53.9826 101.007 53.6338 100.823 53.1219L97.0568 42.6087C96.9899 42.423 96.9228 42.2825 96.8601 42.1967C96.7932 42.106 96.7431 42.0606 96.7011 42.0606C96.7011 42.0606 96.6843 42.0652 96.6509 42.0741C96.6175 42.0833 96.5924 42.6135 96.5757 43.655L96.4793 50.3451C96.4626 51.2512 96.5211 51.8445 96.6509 52.1346C96.7805 52.4199 97.2369 52.6147 98.011 52.7098L98.4043 52.7777C98.6637 52.814 98.8689 52.8954 99.0154 53.0269C99.1659 53.1626 99.2369 53.3485 99.2369 53.584C99.2369 53.8784 99.145 54.0958 98.9569 54.2362C98.7684 54.3767 98.4085 54.4492 97.877 54.4492C97.584 54.4492 97.1364 54.4311 96.5422 54.3948C95.9437 54.3585 95.496 54.345 95.1947 54.345C94.9102 54.345 94.4749 54.3585 93.8973 54.3948C93.3156 54.4311 92.8805 54.4492 92.5877 54.4492C92.0644 54.4492 91.7087 54.3767 91.5204 54.2362C91.3321 54.0958 91.236 53.8784 91.236 53.584C91.236 53.3485 91.307 53.1626 91.4536 53.0269C91.5959 52.8954 91.7967 52.814 92.0603 52.7777L92.4619 52.7098C93.2404 52.6147 93.6925 52.4199 93.8179 52.1346C93.9435 51.8445 94.027 51.3327 94.0688 50.599L94.4749 43.8C94.6214 41.2362 94.6925 39.9771 94.6925 40.0269C94.6925 40.0721 94.6925 39.6645 94.6925 38.7947C94.6925 38.1697 94.6087 37.7711 94.4373 37.6081C94.2655 37.4452 93.9518 37.3226 93.4914 37.2457L93.0143 37.1641C92.5917 37.0917 92.3156 36.9921 92.194 36.8652C92.0686 36.7383 92.0101 36.5437 92.0101 36.2855C92.0101 35.9864 92.102 35.7691 92.2862 35.6286C92.4703 35.4928 92.7716 35.4248 93.1859 35.4248C93.6507 35.4248 94.3493 35.443 95.2783 35.4792C96.2032 35.5155 96.8896 35.529 97.3289 35.529C97.7138 35.529 98.2996 35.5155 99.0823 35.4792C99.8689 35.443 100.48 35.4248 100.923 35.4248C101.12 35.4248 101.254 35.4521 101.325 35.5065C101.4 35.5563 101.468 35.6695 101.522 35.837L104.539 44.1941C104.589 44.33 104.64 44.3935 104.694 44.3889C104.744 44.3844 104.799 44.321 104.845 44.1941L107.728 36.7792C107.941 36.2492 108.109 35.8868 108.23 35.7012C108.351 35.5155 108.535 35.4248 108.782 35.4248C109.184 35.4248 109.749 35.443 110.486 35.4792C111.222 35.5155 111.77 35.529 112.13 35.529C112.553 35.529 113.206 35.5155 114.084 35.4792C114.963 35.443 115.616 35.4248 116.039 35.4248C116.537 35.4248 116.892 35.4973 117.106 35.6422C117.319 35.7918 117.424 36.0137 117.424 36.3126C117.424 36.5799 117.348 36.7792 117.198 36.9196C117.047 37.0555 116.804 37.1461 116.47 37.1914L116.039 37.2457C115.515 37.3137 115.147 37.4406 114.93 37.6306C114.712 37.8165 114.612 38.1697 114.628 38.6905L115.034 50.3451C115.068 51.2331 115.139 51.813 115.248 52.0938C115.361 52.3701 115.767 52.5783 116.47 52.7098L116.737 52.7777C117.072 52.8367 117.302 52.9317 117.432 53.063C117.558 53.1899 117.62 53.3666 117.62 53.584C117.62 53.8784 117.528 54.0958 117.34 54.2362C117.152 54.3767 116.796 54.4492 116.273 54.4492C115.775 54.4492 115.039 54.4311 114.067 54.3948C113.092 54.3585 112.36 54.345 111.871 54.345C111.373 54.345 110.62 54.3585 109.607 54.3948C108.598 54.4311 107.837 54.4492 107.322 54.4492C106.799 54.4492 106.443 54.3767 106.255 54.2362C106.066 54.0958 105.974 53.8784 105.974 53.584C105.974 53.3485 106.046 53.1626 106.196 53.0269C106.343 52.8954 106.544 52.814 106.795 52.7777L107.2 52.7098C108.008 52.6056 108.473 52.379 108.59 52.0394C108.711 51.6997 108.757 51.1335 108.732 50.3451ZM129.392 34.8813C132.572 34.8813 135.134 35.8416 137.083 37.7575C139.034 39.6735 140.009 42.0741 140.009 44.9506C140.009 47.9899 139.004 50.4223 136.991 52.2478C134.983 54.0776 132.376 54.9927 129.17 54.9927C126.04 54.9927 123.563 54.037 121.747 52.13C119.926 50.223 119.018 47.9447 119.018 45.2948C119.018 42.328 119.993 39.8502 121.943 37.8617C123.893 35.8733 126.375 34.8813 129.392 34.8813ZM129.028 36.8923C128.091 36.8923 127.358 37.4631 126.835 38.6092C126.312 39.7552 126.048 41.2952 126.048 43.2338C126.048 46.0196 126.404 48.3388 127.12 50.1959C127.835 52.0529 128.848 52.9815 130.158 52.9815C131.099 52.9815 131.802 52.4153 132.271 51.2829C132.744 50.1505 132.978 48.4473 132.978 46.1644C132.978 43.6098 132.602 41.4221 131.848 39.6101C131.099 37.7982 130.158 36.8923 129.028 36.8923ZM158.459 50.3451L158.212 42.9529C158.204 42.722 158.183 42.4865 158.141 42.2465C158.099 42.0108 158.053 41.8887 158.007 41.8887C157.965 41.8887 157.907 41.9702 157.827 42.1285C157.752 42.2871 157.643 42.5453 157.501 42.8987L153.759 52.6056C153.458 53.3893 153.224 53.8965 153.061 54.1185C152.897 54.3404 152.554 54.4492 152.031 54.4492C151.525 54.4492 151.199 54.354 151.052 54.1683C150.906 53.9826 150.734 53.6338 150.55 53.1219L146.784 42.6087C146.717 42.423 146.65 42.2825 146.587 42.1967C146.52 42.106 146.47 42.0606 146.428 42.0606C146.428 42.0606 146.411 42.0652 146.378 42.0741C146.344 42.0833 146.319 42.6135 146.302 43.655L146.206 50.3451C146.189 51.2512 146.248 51.8445 146.378 52.1346C146.507 52.4199 146.964 52.6147 147.738 52.7098L148.131 52.7777C148.391 52.814 148.596 52.8954 148.742 53.0269C148.893 53.1626 148.964 53.3485 148.964 53.584C148.964 53.8784 148.872 54.0958 148.684 54.2362C148.495 54.3767 148.135 54.4492 147.604 54.4492C147.311 54.4492 146.863 54.4311 146.269 54.3948C145.67 54.3585 145.223 54.345 144.921 54.345C144.637 54.345 144.202 54.3585 143.624 54.3948C143.043 54.4311 142.607 54.4492 142.314 54.4492C141.791 54.4492 141.435 54.3767 141.247 54.2362C141.059 54.0958 140.963 53.8784 140.963 53.584C140.963 53.3485 141.034 53.1626 141.18 53.0269C141.323 52.8954 141.523 52.814 141.787 52.7777L142.189 52.7098C142.967 52.6147 143.419 52.4199 143.544 52.1346C143.67 51.8445 143.754 51.3327 143.796 50.599L144.202 43.8C144.348 41.2362 144.419 39.9771 144.419 40.0269C144.419 40.0721 144.419 39.6645 144.419 38.7947C144.419 38.1697 144.336 37.7711 144.164 37.6081C143.992 37.4452 143.679 37.3226 143.218 37.2457L142.741 37.1641C142.319 37.0917 142.042 36.9921 141.921 36.8652C141.795 36.7383 141.737 36.5437 141.737 36.2855C141.737 35.9864 141.829 35.7691 142.013 35.6286C142.197 35.4928 142.498 35.4248 142.913 35.4248C143.377 35.4248 144.076 35.443 145.005 35.4792C145.93 35.5155 146.616 35.529 147.056 35.529C147.441 35.529 148.026 35.5155 148.809 35.4792C149.596 35.443 150.207 35.4248 150.65 35.4248C150.847 35.4248 150.981 35.4521 151.052 35.5065C151.127 35.5563 151.194 35.6695 151.249 35.837L154.266 44.1941C154.316 44.33 154.366 44.3935 154.42 44.3889C154.471 44.3844 154.525 44.321 154.571 44.1941L157.455 36.7792C157.668 36.2492 157.835 35.8868 157.957 35.7012C158.078 35.5155 158.262 35.4248 158.509 35.4248C158.911 35.4248 159.476 35.443 160.212 35.4792C160.949 35.5155 161.497 35.529 161.857 35.529C162.28 35.529 162.932 35.5155 163.811 35.4792C164.69 35.443 165.343 35.4248 165.765 35.4248C166.263 35.4248 166.619 35.4973 166.832 35.6422C167.046 35.7918 167.151 36.0137 167.151 36.3126C167.151 36.5799 167.075 36.7792 166.925 36.9196C166.774 37.0555 166.531 37.1461 166.196 37.1914L165.765 37.2457C165.242 37.3137 164.874 37.4406 164.656 37.6306C164.439 37.8165 164.338 38.1697 164.355 38.6905L164.761 50.3451C164.795 51.2331 164.866 51.813 164.974 52.0938C165.088 52.3701 165.493 52.5783 166.196 52.7098L166.464 52.7777C166.799 52.8367 167.029 52.9317 167.159 53.063C167.284 53.1899 167.347 53.3666 167.347 53.584C167.347 53.8784 167.255 54.0958 167.067 54.2362C166.879 54.3767 166.523 54.4492 166 54.4492C165.502 54.4492 164.765 54.4311 163.794 54.3948C162.819 54.3585 162.087 54.345 161.597 54.345C161.1 54.345 160.346 54.3585 159.334 54.3948C158.325 54.4311 157.563 54.4492 157.049 54.4492C156.525 54.4492 156.17 54.3767 155.982 54.2362C155.793 54.0958 155.701 53.8784 155.701 53.584C155.701 53.3485 155.772 53.1626 155.923 53.0269C156.069 52.8954 156.27 52.814 156.521 52.7777L156.927 52.7098C157.735 52.6056 158.2 52.379 158.317 52.0394C158.438 51.6997 158.484 51.1335 158.459 50.3451ZM178.282 52.1119H182.107C182.383 52.1119 182.567 52.0575 182.651 51.9533C182.739 51.8445 182.78 51.6816 182.78 51.4596V39.5287C182.78 38.7995 182.726 38.2558 182.621 37.8934C182.517 37.531 182.161 37.2866 181.554 37.1641L181.274 37.1099C181.077 37.0644 180.918 36.974 180.801 36.8381C180.684 36.7021 180.621 36.5166 180.621 36.2855C180.621 35.9683 180.726 35.7464 180.931 35.6197C181.132 35.4882 181.483 35.4248 181.973 35.4248C182.42 35.4248 183.094 35.443 183.99 35.4792C184.885 35.5155 185.551 35.529 185.994 35.529C186.501 35.529 187.258 35.5155 188.266 35.4792C189.279 35.443 190.037 35.4248 190.543 35.4248C191.066 35.4248 191.422 35.4974 191.61 35.6378C191.799 35.7783 191.891 35.9956 191.891 36.2855C191.891 36.5255 191.819 36.7158 191.677 36.8517C191.535 36.9875 191.33 37.0736 191.07 37.1099L190.664 37.1641C189.89 37.2682 189.438 37.4631 189.317 37.7394C189.196 38.0203 189.133 38.6136 189.133 39.5287V50.3724C189.133 51.1606 189.267 51.6951 189.539 51.9714C189.806 52.2523 190.191 52.3928 190.69 52.3928H191.363C191.895 52.3928 192.184 52.4243 192.23 52.4924C192.276 52.5557 192.296 52.6689 192.296 52.8275C192.296 52.8456 192.296 52.814 192.301 52.7279C192.305 52.6464 192.255 53.3258 192.15 54.7662L191.953 57.5971C191.895 58.3582 191.786 58.8881 191.627 59.1871C191.468 59.4906 191.225 59.64 190.899 59.64C190.677 59.64 190.505 59.5993 190.384 59.5222C190.263 59.4408 190.162 59.3184 190.091 59.1509C190.024 58.9788 189.911 58.3628 189.748 57.2983C189.581 56.2293 189.304 55.482 188.911 55.0471C188.739 54.8522 188.534 54.7028 188.3 54.6032C188.061 54.499 186.869 54.4492 184.718 54.4492H169.846C169.322 54.4492 168.967 54.3767 168.778 54.2362C168.59 54.0958 168.498 53.8784 168.498 53.584C168.498 53.3574 168.565 53.1718 168.707 53.0359C168.845 52.9 169.05 52.814 169.318 52.7777L169.724 52.7098C170.498 52.6147 170.95 52.4243 171.071 52.139C171.193 51.8581 171.256 51.2602 171.256 50.3451V39.5287C171.256 38.7903 171.21 38.2469 171.113 37.8934C171.021 37.54 170.557 37.2955 169.724 37.1641L169.368 37.1099C169.067 37.0644 168.845 36.9786 168.707 36.8471C168.565 36.7112 168.498 36.5255 168.498 36.2855C168.498 35.9956 168.59 35.7783 168.778 35.6378C168.967 35.4974 169.322 35.4248 169.846 35.4248C170.36 35.4248 171.122 35.443 172.126 35.4792C173.13 35.5155 173.888 35.529 174.394 35.529C174.838 35.529 175.503 35.5155 176.399 35.4792C177.294 35.443 177.968 35.4248 178.416 35.4248C178.939 35.4248 179.295 35.4928 179.483 35.6286C179.671 35.7691 179.767 35.9864 179.767 36.2855C179.767 36.5166 179.705 36.7021 179.588 36.8381C179.47 36.974 179.311 37.0644 179.115 37.1099L178.834 37.1641C178.227 37.2866 177.872 37.531 177.767 37.8934C177.663 38.2558 177.608 38.7995 177.608 39.5287V51.4596C177.608 51.6816 177.65 51.8445 177.738 51.9533C177.822 52.0575 178.006 52.1119 178.282 52.1119Z"
          fill="#39AAE1"/>
    <path d="M136.942 15.5315H142.892V15.1466H136.942V15.5315Z" fill="#E51170"/>
    <path d="M136.666 14.8449C136.666 15.3377 136.265 15.7374 135.771 15.7374C135.276 15.7374 134.875 15.3377 134.875 14.8449C134.875 14.3516 135.276 13.9519 135.771 13.9519C136.265 13.9519 136.666 14.3516 136.666 14.8449Z"
          fill="#E51170"/>
    <path d="M138.156 25.5167H138.376V14.5289H138.156V25.5167Z" fill="#E51170"/>
    <path d="M138.083 14.5737H138.448V14.135H138.083V14.5737Z" fill="#E51170"/>
    <path d="M138.639 14.0501C138.639 14.1102 138.59 14.1585 138.53 14.1585H138.001C137.941 14.1585 137.892 14.1102 137.892 14.0501C137.892 13.9901 137.941 13.9418 138.001 13.9418H138.53C138.59 13.9418 138.639 13.9901 138.639 14.0501Z"
          fill="#E51170"/>
    <path d="M139.009 25.7364H139.23V14.0895H139.009V25.7364Z" fill="#E51170"/>
    <path d="M138.937 14.134H139.302V13.6956H138.937V14.134Z" fill="#E51170"/>
    <path d="M139.493 13.6108C139.493 13.6706 139.444 13.7189 139.384 13.7189H138.855C138.795 13.7189 138.746 13.6706 138.746 13.6108C138.746 13.5508 138.795 13.5022 138.855 13.5022H139.384C139.444 13.5022 139.493 13.5508 139.493 13.6108Z"
          fill="#E51170"/>
    <path d="M143.232 14.8449C143.232 15.3377 143.633 15.7374 144.127 15.7374C144.622 15.7374 145.023 15.3377 145.023 14.8449C145.023 14.3516 144.622 13.9519 144.127 13.9519C143.633 13.9519 143.232 14.3516 143.232 14.8449Z"
          fill="#E51170"/>
    <path d="M141.522 25.5167H141.743V14.5289H141.522V25.5167Z" fill="#E51170"/>
    <path d="M141.45 14.5737H141.815V14.135H141.45V14.5737Z" fill="#E51170"/>
    <path d="M141.259 14.0501C141.259 14.1102 141.308 14.1585 141.368 14.1585H141.897C141.958 14.1585 142.006 14.1102 142.006 14.0501C142.006 13.9901 141.958 13.9418 141.897 13.9418H141.368C141.308 13.9418 141.259 13.9901 141.259 14.0501Z"
          fill="#E51170"/>
    <path d="M140.668 25.7364H140.889V14.0895H140.668V25.7364Z" fill="#E51170"/>
    <path d="M140.597 14.134H140.961V13.6956H140.597V14.134Z" fill="#E51170"/>
    <path d="M140.405 13.6108C140.405 13.6706 140.454 13.7189 140.514 13.7189H141.043C141.104 13.7189 141.152 13.6706 141.152 13.6108C141.152 13.5508 141.104 13.5022 141.043 13.5022H140.514C140.454 13.5022 140.405 13.5508 140.405 13.6108Z"
          fill="#E51170"/>
    <path d="M139.867 25.2862H140.088V13.6393H139.867V25.2862Z" fill="#E51170"/>
    <path d="M139.796 13.6839H140.16V13.2452H139.796V13.6839Z" fill="#E51170"/>
    <path d="M140.351 13.1607C140.351 13.2207 140.302 13.2688 140.242 13.2688H139.712C139.653 13.2688 139.604 13.2207 139.604 13.1607C139.604 13.1004 139.653 13.0519 139.712 13.0519H140.242C140.302 13.0519 140.351 13.1004 140.351 13.1607Z"
          fill="#E51170"/>
    <path d="M136.223 14.0751C136.223 14.0751 137.41 14.6661 137.341 16.6852C137.272 18.7043 136.223 20.009 136.223 20.009C136.223 20.009 136.639 19.9815 137.024 20.2424C137.41 20.5035 137.479 20.7919 137.479 20.7919C137.479 20.7919 136.239 20.8332 136.06 22.9483C135.881 25.0633 138.181 25.0497 138.181 25.0497H140.881V26.9726C140.881 26.9726 139.228 27.3295 137.52 26.6841C135.812 26.0388 134.573 24.8711 134.242 22.9619C133.912 21.0528 135.344 19.1852 136.019 18.251C136.694 17.317 137.06 16.0054 136.859 15.3667C136.658 14.7278 136.225 14.2816 136.225 14.2816L136.223 14.0751Z"
          fill="#E51170"/>
    <path d="M143.675 14.0751C143.675 14.0751 142.488 14.6661 142.557 16.6852C142.626 18.7043 143.675 20.009 143.675 20.009C143.675 20.009 143.26 19.9815 142.874 20.2424C142.488 20.5035 142.42 20.7919 142.42 20.7919C142.42 20.7919 143.659 20.8332 143.838 22.9483C144.017 25.0633 141.717 25.0497 141.717 25.0497H139.017V26.9726C139.017 26.9726 140.67 27.3295 142.378 26.6841C144.086 26.0388 145.326 24.8711 145.657 22.9619C145.987 21.0528 144.555 19.1852 143.88 18.251C143.204 17.317 142.838 16.0054 143.039 15.3667C143.24 14.7278 143.673 14.2816 143.673 14.2816L143.675 14.0751Z"
          fill="#E51170"/>
    <path d="M144.031 25.7363C141.324 30.3099 140.601 30.7427 138.7 30.7427C137.812 30.7427 136.779 30.0627 136.779 28.9089V28.4146L138.143 28.3529C139.155 28.3116 139.816 27.4255 140.353 26.6841L144.031 25.7363Z"
          fill="#E51170"/>
    <path d="M111.09 26.7747L110.918 22.0372C110.912 21.8892 110.898 21.7381 110.868 21.5843C110.839 21.4335 110.807 21.3549 110.775 21.3549C110.746 21.3549 110.706 21.4072 110.65 21.5089C110.598 21.6104 110.522 21.7761 110.423 22.0024L107.82 28.2234C107.611 28.7257 107.448 29.0505 107.334 29.1929C107.221 29.3352 106.982 29.4048 106.618 29.4048C106.266 29.4048 106.039 29.3438 105.937 29.225C105.835 29.106 105.715 28.8824 105.588 28.5544L102.967 21.8165C102.921 21.6975 102.874 21.6075 102.831 21.5523C102.784 21.4943 102.749 21.4651 102.72 21.4651C102.72 21.4651 102.708 21.4683 102.685 21.4739C102.661 21.4797 102.644 21.8194 102.633 22.4871L102.566 26.7747C102.554 27.3553 102.595 27.7356 102.685 27.9213C102.775 28.1042 103.092 28.2291 103.631 28.2901L103.905 28.3337C104.085 28.357 104.228 28.4091 104.33 28.4933C104.435 28.5804 104.484 28.6994 104.484 28.8503C104.484 29.0391 104.42 29.1785 104.289 29.2683C104.158 29.3583 103.907 29.4048 103.538 29.4048C103.334 29.4048 103.023 29.3931 102.609 29.37C102.193 29.3469 101.882 29.3381 101.672 29.3381C101.474 29.3381 101.171 29.3469 100.769 29.37C100.365 29.3931 100.062 29.4048 99.8579 29.4048C99.4943 29.4048 99.2468 29.3583 99.1156 29.2683C98.9845 29.1785 98.9177 29.0391 98.9177 28.8503C98.9177 28.6994 98.9672 28.5804 99.069 28.4933C99.168 28.4091 99.3078 28.357 99.4913 28.3337L99.7705 28.2901C100.312 28.2291 100.627 28.1042 100.714 27.9213C100.801 27.7356 100.86 27.4076 100.889 26.9373L101.171 22.58C101.273 20.9369 101.322 20.13 101.322 20.1619C101.322 20.1908 101.322 19.9295 101.322 19.3723C101.322 18.9715 101.264 18.7161 101.145 18.6117C101.026 18.507 100.807 18.4289 100.487 18.3795L100.155 18.3272C99.861 18.2807 99.6688 18.217 99.5843 18.1357C99.497 18.0542 99.4564 17.9294 99.4564 17.7641C99.4564 17.5724 99.5204 17.4332 99.6483 17.343C99.7766 17.2559 99.9862 17.2125 100.274 17.2125C100.598 17.2125 101.084 17.2242 101.73 17.2473C102.374 17.2705 102.851 17.2792 103.156 17.2792C103.424 17.2792 103.832 17.2705 104.376 17.2473C104.924 17.2242 105.349 17.2125 105.657 17.2125C105.794 17.2125 105.887 17.2298 105.937 17.2646C105.989 17.2967 106.036 17.3692 106.074 17.4766L108.173 22.8326C108.208 22.9197 108.243 22.9603 108.281 22.9574C108.315 22.9545 108.353 22.9139 108.385 22.8326L110.391 18.0805C110.54 17.7408 110.656 17.5086 110.74 17.3894C110.825 17.2705 110.953 17.2125 111.125 17.2125C111.404 17.2125 111.797 17.2242 112.31 17.2473C112.822 17.2705 113.204 17.2792 113.454 17.2792C113.748 17.2792 114.202 17.2705 114.813 17.2473C115.425 17.2242 115.879 17.2125 116.173 17.2125C116.519 17.2125 116.767 17.259 116.915 17.3517C117.064 17.4476 117.136 17.5899 117.136 17.7814C117.136 17.9527 117.084 18.0805 116.979 18.1705C116.875 18.2576 116.706 18.3157 116.473 18.3445L116.173 18.3795C115.809 18.4229 115.553 18.5043 115.401 18.6262C115.25 18.7452 115.18 18.9715 115.192 19.3054L115.474 26.7747C115.498 27.3436 115.547 27.7154 115.623 27.8952C115.701 28.0726 115.984 28.2059 116.473 28.2901L116.659 28.3337C116.892 28.3714 117.052 28.4325 117.143 28.5167C117.23 28.5979 117.273 28.7111 117.273 28.8503C117.273 29.0391 117.209 29.1785 117.078 29.2683C116.947 29.3583 116.7 29.4048 116.336 29.4048C115.99 29.4048 115.477 29.3931 114.802 29.37C114.123 29.3469 113.614 29.3381 113.273 29.3381C112.927 29.3381 112.403 29.3469 111.698 29.37C110.997 29.3931 110.467 29.4048 110.109 29.4048C109.745 29.4048 109.497 29.3583 109.366 29.2683C109.235 29.1785 109.171 29.0391 109.171 28.8503C109.171 28.6994 109.221 28.5804 109.326 28.4933C109.428 28.4091 109.567 28.357 109.742 28.3337L110.024 28.2901C110.586 28.2234 110.909 28.0782 110.991 27.8604C111.075 27.6429 111.107 27.2799 111.09 26.7747ZM120.01 26.7747V19.8426C120.01 19.256 119.966 18.8757 119.882 18.6958C119.798 18.5187 119.483 18.3939 118.944 18.3272L118.662 18.2924C118.482 18.2691 118.339 18.2138 118.24 18.124C118.141 18.0311 118.092 17.9121 118.092 17.7641C118.092 17.5782 118.156 17.4388 118.287 17.349C118.418 17.259 118.665 17.2125 119.029 17.2125C119.387 17.2125 119.92 17.2242 120.624 17.2473C121.329 17.2705 121.859 17.2792 122.211 17.2792C123.087 17.2792 124.403 17.2705 126.165 17.2473C127.923 17.2242 129.253 17.2125 130.159 17.2125C130.345 17.2125 130.476 17.2357 130.552 17.285C130.625 17.3315 130.657 17.4418 130.645 17.613C130.628 17.9817 130.619 18.3009 130.616 18.5739C130.613 18.8469 130.622 19.4129 130.645 20.275C130.651 20.484 130.61 20.638 130.526 20.7308C130.441 20.8237 130.319 20.8702 130.159 20.8702C129.993 20.8702 129.847 20.8296 129.716 20.7483C129.585 20.6641 129.478 20.5509 129.39 20.4028L129.16 20.0022C128.872 19.4884 128.59 19.1428 128.313 18.9688C128.037 18.7975 127.713 18.7104 127.347 18.7104H124.831C124.689 18.7104 124.587 18.7423 124.523 18.8032C124.461 18.8671 124.429 18.9745 124.429 19.1285V21.2882C124.429 21.5206 124.47 21.6627 124.549 21.715C124.627 21.77 124.77 21.7875 124.974 21.77C125.14 21.7613 125.419 21.7267 125.809 21.6685C126.202 21.6133 126.61 21.5843 127.029 21.5843C128.7 21.5843 129.94 21.9269 130.747 22.609C131.553 23.294 131.958 24.1882 131.958 25.2943C131.958 26.6268 131.495 27.6573 130.569 28.3831C129.641 29.1087 128.322 29.4717 126.61 29.4717C126.121 29.4717 125.384 29.4513 124.403 29.4048C123.419 29.3583 122.683 29.3381 122.194 29.3381C121.841 29.3381 121.314 29.3469 120.616 29.37C119.917 29.3931 119.387 29.4048 119.029 29.4048C118.665 29.4048 118.418 29.3583 118.287 29.2683C118.156 29.1785 118.092 29.0391 118.092 28.8503C118.092 28.6994 118.141 28.5804 118.24 28.4933C118.339 28.4091 118.482 28.357 118.662 28.3337L118.944 28.2901C119.483 28.2291 119.798 28.1072 119.882 27.9244C119.966 27.7444 120.01 27.3613 120.01 26.7747ZM124.429 23.8108V26.4411C124.429 27.2073 124.508 27.6891 124.668 27.8867C124.828 28.087 125.105 28.1857 125.495 28.1857C126.001 28.1857 126.392 27.9794 126.662 27.5672C126.933 27.1579 127.067 26.5192 127.067 25.6571C127.067 24.7631 126.927 24.0954 126.645 23.6543C126.363 23.2158 125.935 22.9951 125.361 22.9951C125.035 22.9951 124.799 23.0589 124.651 23.1898C124.502 23.3202 124.429 23.5292 124.429 23.8108Z"
          fill="#39AAE1"/>
    <path d="M148.982 26.4924V19.5601C148.982 18.9737 148.939 18.5934 148.854 18.4133C148.77 18.2364 148.455 18.1116 147.917 18.0447L147.634 18.0099C147.454 17.9865 147.311 17.9315 147.212 17.8415C147.113 17.7488 147.064 17.6296 147.064 17.4816C147.064 17.2957 147.128 17.1565 147.259 17.0665C147.39 16.9765 147.637 16.93 148.001 16.93C148.359 16.93 148.889 16.9417 149.588 16.9648C150.287 16.9881 150.813 16.9969 151.166 16.9969C151.48 16.9969 151.946 16.9881 152.566 16.9648C153.186 16.9417 153.652 16.93 153.963 16.93C154.307 16.93 154.549 16.9706 154.688 17.0548C154.831 17.1361 154.904 17.2784 154.904 17.4816C154.904 17.6296 154.86 17.7488 154.779 17.8357C154.697 17.9228 154.586 17.9809 154.45 18.0099L154.255 18.0447C153.832 18.1232 153.585 18.28 153.512 18.5121C153.439 18.7445 153.402 19.0927 153.402 19.5601V21.8216C153.402 21.9753 153.442 22.077 153.521 22.1293C153.599 22.1785 153.731 22.2048 153.914 22.2048H154.17C154.636 22.2048 155.023 22.0654 155.338 21.7838C155.649 21.5023 155.914 21.0928 156.129 20.5558L156.686 19.1421C157.044 18.2393 157.434 17.5889 157.862 17.1855C158.287 16.782 158.884 16.5818 159.652 16.5818C160.237 16.5818 160.715 16.7385 161.088 17.049C161.46 17.3626 161.646 17.7923 161.646 18.3408C161.646 18.8691 161.515 19.2959 161.253 19.6268C160.991 19.955 160.619 20.1203 160.13 20.1203C159.905 20.1203 159.719 20.0855 159.565 20.0159C159.414 19.949 159.207 19.7139 158.951 19.3104C158.884 19.1973 158.814 19.1189 158.747 19.0725C158.68 19.0289 158.601 19.0056 158.517 19.0056C158.386 19.0056 158.243 19.0781 158.086 19.2233C157.929 19.3657 157.818 19.537 157.748 19.7372L157.416 20.6546C157.212 21.2322 156.977 21.6851 156.712 22.0101C156.45 22.3384 156.127 22.5647 155.745 22.6953V22.7968C156.654 22.8143 157.425 22.9973 158.06 23.3428C158.694 23.6881 159.262 24.2339 159.763 24.977L160.878 26.655C161.198 27.1309 161.425 27.4445 161.565 27.5954C161.705 27.7434 161.882 27.8597 162.098 27.938L162.296 28.0078C162.47 28.0745 162.59 28.147 162.654 28.2256C162.715 28.301 162.747 28.4054 162.747 28.5361C162.747 28.7334 162.677 28.8814 162.537 28.9773C162.397 29.0731 162.176 29.1225 161.868 29.1225C161.664 29.1225 161.358 29.1108 160.948 29.0877C160.537 29.0644 160.234 29.0556 160.036 29.0556C159.83 29.0556 159.518 29.0644 159.096 29.0877C158.677 29.1108 158.357 29.1225 158.133 29.1225C157.565 29.1225 157.143 29.0266 156.869 28.838C156.592 28.6463 156.351 28.3475 156.147 27.938L153.963 23.6272C153.926 23.5545 153.876 23.4995 153.815 23.4616C153.757 23.427 153.684 23.4066 153.597 23.4066C153.524 23.4066 153.472 23.4326 153.445 23.4878C153.416 23.5429 153.402 23.636 153.402 23.7723V26.4895C153.402 26.9567 153.439 27.3053 153.512 27.5433C153.585 27.7784 153.832 27.9324 154.255 28.0078L154.45 28.0483C154.586 28.0716 154.697 28.1268 154.779 28.2168C154.86 28.3037 154.904 28.42 154.904 28.568C154.904 28.7799 154.831 28.9252 154.688 29.0035C154.549 29.0819 154.307 29.1225 153.963 29.1225C153.675 29.1225 153.218 29.1108 152.595 29.0877C151.972 29.0644 151.498 29.0556 151.166 29.0556C150.813 29.0556 150.287 29.0644 149.588 29.0877C148.889 29.1108 148.359 29.1225 148.001 29.1225C147.637 29.1225 147.39 29.076 147.259 28.986C147.128 28.896 147.064 28.7568 147.064 28.568C147.064 28.4169 147.113 28.2981 147.212 28.211C147.311 28.1268 147.454 28.0745 147.634 28.0512L147.917 28.0078C148.455 27.9468 148.77 27.8249 148.854 27.6419C148.939 27.4618 148.982 27.0788 148.982 26.4924Z"
          fill="#39AAE1"/>
    <path d="M241.907 51.9627C247.44 38.9177 249.197 29.3541 249.366 27.6165C248.417 38.7616 246.24 49.2437 241.141 58.7515C236.1 68.1455 227.723 78.4348 217.551 82.7055C225.512 79.1889 235.928 66.0641 241.907 51.9627ZM259.145 28.205V27.6847C259.138 26.8038 259.097 26.0313 259.041 25.384C257.733 27.1491 254.168 31.0912 251.52 32.0023C253.579 29.9563 258.308 22.5612 258.64 21.8408C256.621 9.10791 248.185 0.0185579 246.458 1.11843e-05C245.339 -0.0122838 242.193 10.1161 241.57 12.5674C242.603 16.0223 245.341 22.7275 246.146 23.9636C244.731 22.6973 240.312 17.0961 240.35 16.7415C239.781 19.342 239.106 28.8041 239.105 33.1555C239.105 33.1555 242.907 40.6536 244.28 43.6415C241.687 42.0817 239.479 38.6414 238.795 37.957C238.743 40.792 239.124 43.6905 238.122 46.9641C239.348 48.6423 240.531 53.9937 240.304 54.7604C239.895 53.2064 237.425 51.4111 237.425 51.4111C237.672 54.1352 235.538 59.177 234.877 60.6166C235.587 62.0593 235.301 64.0423 235.301 64.0423C235.012 63.0402 234.208 61.8042 234.208 61.8042C234.063 63.4778 231.671 67.6097 230.937 68.3947C231.209 68.8903 230.849 70.2177 230.849 70.2177C230.671 69.5163 230.157 69.2808 230.157 69.2808C230.157 69.2808 228.574 71.9167 228.189 72.4869C228.553 72.7778 228.035 73.9092 228.035 73.9092L227.652 73.1133L226.437 74.6725L224.795 77.3036C222.041 79.8529 219.406 81.6838 217.077 82.6328C216.993 82.6666 216.906 82.7003 216.822 82.7339C216.692 82.7843 216.628 82.9304 216.677 83.0608C216.702 83.1234 216.751 83.1715 216.809 83.1988C216.868 83.2255 216.939 83.2311 217.005 83.2048C217.092 83.1715 217.178 83.1371 217.266 83.1006H217.267C220.443 81.8259 223.372 79.9279 226.045 77.6629C227.003 77.298 227.746 77.2661 227.764 77.764C228 77.2499 227.221 76.7706 227.221 76.7706L228.733 76.4647L232.022 74.7321C232.022 74.7321 231.046 74.412 230.221 74.0354C230.935 74.1119 233.121 74.2374 233.948 73.2479C234.777 72.2568 236.253 70.9411 237.549 70.2886C236.798 70.5678 234.724 70.7412 233.692 70.2715C235.213 70.2177 237.542 68.3037 238.649 68.0626C239.835 67.1111 244.849 62.7993 247.023 59.6878C247.023 59.6878 242.487 61.4145 240.713 61.4768C242.722 60.901 246.79 58.8357 248.868 57.2967C251.975 53.2408 255.252 49.3564 256.17 46.5411C252.865 48.8186 250.282 49.7703 245.896 50.9673C250.311 49.7626 254.303 43.5152 256.948 40.6363C258.654 35.7048 259.121 31.3442 259.145 28.205ZM249.382 27.4469C249.386 27.4044 249.389 27.3639 249.392 27.3225C249.392 27.3231 249.391 27.3646 249.382 27.4469Z"
          fill="#E51170"/>
    <path fill-rule="evenodd" clip-rule="evenodd"
          d="M62.6505 114.038C62.8346 114.093 62.9153 114.104 63.0303 114.157C63.062 114.172 63.1492 114.216 63.1791 114.236C63.3755 114.366 63.2031 114.239 63.4081 114.443C62.7195 114.279 62.875 114.282 62.6505 114.038ZM61.7749 113.505C62.2313 113.601 62.0428 113.546 62.647 114.018C61.9443 113.894 62.2246 113.781 61.7749 113.505ZM65.7559 114.315C65.7615 114.317 65.8326 114.36 66.0104 114.37C66.0581 114.373 66.232 114.367 66.2861 114.362L68.1465 113.932C69.0017 113.588 69.5921 113.222 70.1725 112.715C71.0498 111.948 71.8648 110.875 72.3838 109.888C72.5677 109.539 72.4628 109.653 72.7353 109.401C72.3054 111.067 70.1382 113.457 68.0648 114.151C66.8232 114.567 66.3964 114.351 65.4249 114.457L65.7559 114.315ZM73.4319 107.166C73.7163 106.756 74.2183 106.432 74.7313 106.267C74.6678 107.463 72.6517 111.015 71.7514 111.675L72.4392 110.549C72.9817 109.798 74.1284 108.15 73.9186 107.228C73.6946 107.163 73.7253 107.168 73.4319 107.166ZM71.5994 108.439C70.7574 109.374 67.2067 110.005 65.8539 110.046C64.3964 110.09 63.341 109.882 62.038 109.544C61.5531 109.418 61.3159 109.386 60.9504 109.088C62.5074 109.27 62.9496 109.801 65.8771 109.84C68.5762 109.877 69.7752 108.985 71.5994 108.439ZM65.7559 114.315L65.46 114.243C64.2808 114.084 64.7816 114.245 63.4487 113.765C61.365 113.014 59.6465 110.432 58.6302 108.409C59.1598 108.656 59.4425 108.996 60.003 109.261C62.8397 110.605 65.9028 111.02 69.0579 110.16C71.5173 109.49 71.2283 109.22 72.8168 108.427C72.5574 109.369 71.2811 111.287 70.3986 112.12C68.6462 113.774 68.3064 113.736 65.7559 114.315ZM58.9182 108.296C58.6776 108.109 58.9746 108.402 58.6891 108.029C59.0839 108.188 59.5648 108.398 59.8438 108.67L58.9182 108.296ZM58.0785 107.837C57.8505 107.787 58.0937 107.796 57.7566 107.814C57.9773 108.856 58.3604 109.08 58.6298 109.859C58.1401 109.539 57.5123 108.563 57.1859 107.971C56.9687 107.578 56.8996 107.562 56.9807 107.153C57.5232 107.096 58.1136 107.616 58.5428 107.951L58.1562 107.861C58.1313 107.855 58.1019 107.843 58.0785 107.837ZM79.4125 95.7987C79.4794 95.363 79.3843 95.0852 79.3949 94.6246C79.6401 95.2398 79.7839 95.8815 79.6934 96.4074C79.2771 96.4591 79.0409 96.3126 78.7466 96.1469L78.0281 95.7372C78.0039 95.6939 77.9728 95.6945 77.945 95.6735C78.6465 95.6762 78.7151 96.0129 79.4125 95.7987ZM68.6084 99.1723C68.7561 99.2092 68.5852 99.2797 68.767 99.169C68.9108 99.0819 69.7704 97.5557 71.2895 96.9628L70.7957 97.3489C68.9647 98.6776 69.1601 99.5954 68.5472 100.256C68.2677 99.6508 68.2723 98.6968 68.567 98.1046C68.5898 98.4624 68.4596 98.9771 68.6084 99.1723ZM69.1436 98.249C69.2232 97.191 69.7977 95.6018 70.2991 94.6111C70.7628 93.6952 71.4669 92.4924 72.6908 91.7751C73.9886 91.0145 75.8195 90.9599 76.7002 91.6009C77.9707 92.5251 78.1918 93.6921 78.5272 95.5072C77.5972 95.4017 77.4321 95.2221 76.0848 95.2313C75.1178 95.2379 74.2989 95.4365 73.3455 95.7193C71.4481 96.282 70.4364 97.3277 69.1436 98.249ZM72.7223 91.195C73.4726 90.7846 73.7533 90.4216 74.8381 90.2672C75.6632 90.1497 76.3627 90.3047 76.8965 90.6254C78.5849 91.6401 78.5941 93.2595 78.7749 94.55C78.275 92.8712 78.0737 91.5292 76.7811 90.8307C75.1646 89.9573 73.7476 90.8244 72.7223 91.195ZM69.214 90.6994C69.1618 91.0074 69.4322 90.6006 69.0473 91.072C69.0439 91.0762 68.8293 91.2744 68.791 91.3098C68.8937 90.9901 68.9108 90.9386 69.214 90.6994ZM69.214 90.6994C69.2558 90.3343 69.692 89.8746 69.9367 89.5762C72.7284 86.1719 77.2283 86.5689 78.8827 88.5845C78.2365 88.473 78.3257 88.2785 77.6564 88.0339C75.1029 87.1011 71.9292 87.8332 70.0807 89.8425C69.7883 90.1603 69.5378 90.5283 69.214 90.6994ZM57.1733 91.4146C58.2611 91.9923 58.6045 92.0769 59.5533 93.2172C60.1955 93.9891 60.6908 95.1096 61.0825 96.1426C61.4689 96.4235 61.4497 96.7548 61.6116 97.3477C61.8039 97.0028 61.5818 96.9086 61.8058 97.2049C61.5464 96.0446 61.5968 96.9661 61.9688 96.4812L62.0539 97.1028C62.1546 97.9195 62.4725 98.8133 62.4292 99.6602C62.3989 100.248 62.2911 100.159 62.1703 100.24C61.7987 99.8415 61.6497 99.1894 61.364 98.7737C61.0183 98.2713 60.6451 98.0837 60.4419 97.6982C60.2645 97.6599 60.4014 97.7272 60.2037 97.6198C60.1761 97.6046 60.0977 97.5429 60.0729 97.5248C60.0607 97.5163 59.9065 97.3823 59.8403 97.3337C59.2461 97.3839 59.3585 97.0889 58.1562 96.6096L56.5733 96.0463C56.3148 95.974 56.2283 95.9294 55.9533 95.8731C55.0513 95.6889 54.9278 95.9277 54.5188 95.6343C53.9016 95.7256 53.2675 95.7122 52.6389 95.9483C52.0916 96.1538 51.6939 96.575 51.1651 96.5637C51.0673 96.4472 51.1515 96.7415 51.0132 96.3345C50.9582 96.173 50.9797 96.2034 50.9795 96.0561C50.9793 95.6245 51.2429 95.1371 51.3338 94.772L51.3626 94.8847C51.5843 94.6717 51.6069 94.5936 51.7058 94.6394C51.534 94.0107 51.6243 94.5375 51.8619 94.3054C51.7839 93.1795 52.5375 91.6019 53.3369 91.0218C54.5873 90.1142 56.1269 90.2211 57.0688 90.8249C57.3848 90.7963 57.1591 90.7859 57.4354 90.8503C57.6331 90.8965 57.3876 90.8505 57.6565 90.9407C57.4551 91.3604 57.8574 91.1081 57.1733 91.4146ZM51.8955 88.5569C52.5992 87.9632 53.7574 87.4081 54.6755 87.2599C55.9299 87.058 56.9338 87.1812 57.8783 87.5308C59.532 88.1431 61.5009 90.1438 62.1051 91.6845C61.2881 90.2826 59.4127 88.6899 57.8097 88.1295C55.0373 87.1603 53.6138 87.9322 51.6029 88.912L51.8955 88.5569ZM52.9436 79.4172C55.5767 78.9931 57.2801 80.2582 60.5815 81.0486C62.884 81.5998 66.4715 81.8224 69.2441 81.2702C68.5869 81.3525 67.7885 81.6007 66.9791 81.6963C63.7517 82.0771 59.7541 81.3677 56.8814 80.2038C55.8657 79.7925 54.3087 79.2702 52.9436 79.4172ZM55.7326 114.025L55.7846 114.243L55.8935 114.217C56.268 114.482 56.1165 114.566 56.3746 114.788C56.4762 115.294 56.4224 114.754 56.2358 115.045C56.6661 115.223 56.9447 115.985 57.4402 116.056L58.5378 116.913C58.8666 117.172 59.3092 117.492 59.6384 117.713C59.8609 117.863 60.053 117.919 60.2657 118.038C64.7778 120.57 69.1685 120.039 73.1798 116.435C77.4386 112.608 79.304 107.882 80.3297 102.234L81.2478 96.6681C81.7555 92.6862 82.4426 89.4984 82.7097 85.4046C83.0677 79.92 80.7929 77.7992 75.1192 79.2544C72.813 79.8458 70.6293 80.853 68.3076 81.1232C66.4433 81.3402 63.8466 81.3291 62.271 80.9934C59.9667 80.502 58.9667 79.9571 57.0158 79.4897C54.4943 78.8853 50.6853 77.9784 49.1739 81.0995C48.851 81.7659 48.6244 82.9412 48.7887 83.8923C49.0736 82.264 49.1958 79.8612 51.6351 79.6814C50.864 79.9981 50.3083 80.1976 49.931 80.8042C48.8161 82.5966 48.9026 84.6607 49.0731 86.8604C49.3197 90.0371 49.627 92.8339 50.097 96.0946C50.5375 99.1496 50.9714 102.685 51.8619 105.705C52.3417 107.333 52.8974 108.805 53.5975 110.266C54.4205 111.983 55.4488 113.426 55.7326 114.025Z"
          fill="#E51170"/>
    <path fill-rule="evenodd" clip-rule="evenodd"
          d="M48.9 81.401L48.4382 82.691C48.3581 83.0167 48.4031 83.0498 48.3769 83.3528C48.3241 83.9676 48.295 83.9105 48.0967 84.0299C48.4146 84.5017 48.1464 84.495 48.3339 85.0606L48.2413 85.4225C48.2403 85.429 48.2242 85.7314 48.2246 85.7578C48.2651 88.0291 49.3546 96.8921 49.8863 97.976C49.6409 98.3573 49.713 98.0091 49.8716 98.3773C49.6465 98.5826 49.7956 98.5378 49.7506 98.6687C49.9928 98.8656 49.839 98.6933 50.0605 99.0452L50.2211 99.4403C49.8302 99.4685 50.0146 99.2134 50.2048 99.9326L50.0234 99.9532L50.2403 99.8978C50.284 100.629 50.6907 103.133 51.1914 103.804C51.0296 105.371 53.6644 111.104 54.9402 113.011C55.2232 113.434 55.41 113.822 55.7325 114.025C55.4487 113.426 54.4205 111.983 53.5975 110.266C52.8974 108.805 52.3417 107.333 51.8618 105.705C50.9713 102.685 50.5375 99.1496 50.0969 96.0946C49.6269 92.8339 49.3197 90.0371 49.0731 86.8604C48.9025 84.6607 48.816 82.5966 49.931 80.8042C50.3082 80.1976 50.8639 79.9981 51.6351 79.6814C49.1958 79.8612 49.0735 82.264 48.7886 83.8923C48.6244 82.9412 48.8509 81.7659 49.1738 81.0995C50.6852 77.9784 54.4943 78.8853 57.0157 79.4897C58.9666 79.9571 59.9666 80.502 62.2709 80.9934C63.8465 81.3291 66.4432 81.3402 68.3076 81.1233C70.6292 80.853 72.813 79.8458 75.1192 79.2544C80.7928 77.7992 83.0677 79.92 82.7097 85.4046C82.4426 89.4985 81.7554 92.6862 81.2478 96.6681L80.3297 102.234C79.304 107.882 77.4385 112.608 73.1798 116.435C69.1684 120.039 64.7778 120.57 60.2657 118.038C60.0529 117.919 59.8609 117.863 59.6383 117.713C59.3092 117.492 58.8665 117.172 58.5378 116.913L57.4402 116.056C57.6903 116.565 58.4059 117.047 58.8885 117.418C60.7299 118.83 63.4601 120.004 65.8167 119.967C68.2119 119.929 70.5448 118.955 72.4236 117.546L73.5375 116.636C77.3395 112.999 79.5497 108.316 80.5746 103.189C80.7654 102.234 80.9625 101.471 81.0793 100.476L82.0146 95.007C82.0651 94.7605 82.1126 94.5671 82.1462 94.3548L82.4791 92.1802C82.7514 90.4652 83.1828 88.3467 83.2693 86.6293C83.4142 83.7594 83.737 78.5669 79.3136 78.3008C77.3117 78.1806 74.4546 78.9506 72.5657 79.7079C72.3055 79.8123 71.976 79.8614 71.7064 79.9454C71.233 80.0932 71.3561 80.1446 70.8819 80.2939C68.5649 81.0226 66.3822 81.0286 64.5025 80.9105C62.179 80.7646 60.0147 80.0367 57.7996 79.4001C57.3079 79.2588 56.9687 79.0919 56.483 78.9922C55.5737 78.8055 54.6242 78.6021 53.5969 78.6186C51.9141 78.6451 50.4762 78.8683 49.4139 80.2386C49.1017 80.6417 48.7937 80.9695 48.9 81.401Z"
          fill="white"/>
    <path fill-rule="evenodd" clip-rule="evenodd"
          d="M65.7559 114.315C68.3064 113.736 68.6462 113.774 70.3986 112.12C71.2812 111.287 72.5575 109.369 72.8168 108.427C71.2283 109.22 71.5173 109.489 69.0579 110.16C65.9028 111.02 62.8397 110.605 60.0031 109.261C59.4426 108.996 59.1598 108.656 58.6302 108.409C59.6465 110.432 61.365 113.014 63.4487 113.765C64.7816 114.245 64.2809 114.084 65.46 114.243L65.7559 114.315Z"
          fill="white"/>
    <path fill-rule="evenodd" clip-rule="evenodd"
          d="M25.3343 95.373C25.1257 96.7556 24.6987 96.2909 25.0266 98.8264C24.1096 98.671 23.7717 96.8973 23.5612 96.0106C23.8711 96.5608 23.9951 97.6611 24.5456 97.9699C24.7407 97.5934 24.7907 95.9302 25.3343 95.373ZM25.3343 95.373C25.5144 94.6223 25.8613 94.1397 26.3796 93.5396C26.3111 93.7342 26.3895 93.6196 26.2208 93.873C25.639 94.7463 25.5698 95.169 25.3343 95.373ZM24.3754 96.8015C23.4139 93.5806 23.1476 90.6819 24.7587 88.7597C26.769 86.3616 29.7281 87.2881 31.1575 89.836C29.1174 90.326 27.7145 91.4779 26.6315 92.732C26.4279 92.9675 26.034 93.4372 25.8906 93.6856C25.6407 94.1176 25.5435 94.3696 25.3209 94.7222C24.7821 95.5759 24.673 96.4864 24.3754 96.8015ZM28.7124 91.2356C28.9506 90.9295 29.2311 90.8232 29.633 90.6429C29.945 90.5033 30.3427 90.3376 30.6541 90.2309C31.921 89.7977 32.3636 90.1726 31.7893 88.9158L32.1557 89.1777C33.6299 90.5485 31.3803 90.1249 30.5832 90.3816C29.8443 90.6198 29.3642 90.9261 28.7124 91.2356ZM37.0216 86.7648C37.5206 86.6295 38.3549 85.642 38.967 85.2617C38.8623 85.4028 39.0368 85.2373 38.7865 85.4759L38.6471 85.5878C37.4456 86.5866 37.7461 87.2082 37.0013 87.4087C36.6464 87.0334 36.5501 86.6008 36.4506 86.0542L36.7219 86.4543C36.8828 86.6964 36.7783 86.5899 37.0216 86.7648ZM37.552 86.0448C36.943 84.3583 36.5171 83.1561 37.2138 81.7703C38.4116 79.3886 42.0014 79.4828 44.36 81.2541C45.0733 81.7897 46.6242 82.9417 47.0537 83.7273C44.7364 83.0377 41.6544 83.401 39.4185 84.6538C38.561 85.1341 38.2262 85.6047 37.552 86.0448ZM24.4511 87.9103C24.4417 88.1139 24.5332 88.0514 24.2774 88.4034C24.1543 88.5728 24.0849 88.638 23.9508 88.7666L24.4511 87.9103ZM24.4511 87.9103L24.6689 87.5319C24.8076 87.3722 24.8237 87.3575 24.951 87.2318C26.7721 85.4315 29.1011 86.1023 30.4522 87.9728C29.8497 87.7401 30.1061 87.5598 29.122 86.9986C28.0831 86.4062 27.082 86.0292 25.657 86.9077C25.1654 87.2105 24.8043 87.7351 24.4511 87.9103ZM36.5564 85.3138C36.4874 85.0485 36.2372 84.7455 36.0947 84.3762C34.6038 80.5127 38.184 78.8793 39.3064 79.3515C37.6354 79.6543 36.5773 80.3266 36.1745 81.4488C35.5808 83.1034 36.2027 83.6965 36.5564 85.3138ZM21.9342 94.4761C20.6699 92.6924 20.3112 89.4914 20.5574 87.539C20.7158 86.2817 21.901 83.0919 23.4833 82.6914C23.6674 83.5316 22.7357 84.405 22.2699 85.1554C21.874 85.7926 21.4391 86.8315 21.2571 87.7649C20.7574 90.327 21.2373 91.7703 21.9342 94.4761ZM43.8097 78.0745C42.5163 77.0382 40.1365 76.0544 38.4145 76.0333C37.7789 76.0254 35.6982 76.4541 35.2149 75.8962C36.1846 74.3797 40.5692 75.5319 41.4546 75.9825C43.0595 76.7987 45.0574 78.2818 45.9962 80.0209C45.6716 79.8396 45.2493 79.3017 44.918 79.0118C44.5092 78.6542 44.1964 78.3846 43.8097 78.0745ZM15.4008 80.197C17.8144 78.55 19.9104 78.7882 22.7629 77.8934C26.2367 76.8035 26.5832 76.2119 29.2424 74.6859L27.9301 75.7416C25.1665 77.4948 22.1614 78.5127 18.9091 79.0158C17.1559 79.2871 16.8013 79.617 15.4008 80.197ZM51.1413 103.621C50.6405 102.949 50.2339 100.445 50.1902 99.7141L49.9732 99.7696C49.5651 99.7239 49.6832 99.7239 49.325 99.6983C47.5736 99.5735 45.2871 100.086 43.6547 100.839C41.887 101.654 40.5842 102.618 39.3307 104.052L37.8513 106.045C37.4 106.817 37.5194 106.47 37.603 106.834C37.57 107.23 37.3263 107.575 37.1513 107.924C36.9085 108.408 37.0368 108.628 36.4728 108.845C36.0404 107.79 36.2207 106.429 36.4675 105.601C36.5559 106.331 36.4556 107.183 36.8433 107.866C37.1139 107.713 37.143 107.675 37.2759 107.441C37.2853 107.425 37.3754 107.234 37.3756 107.233C37.4477 107.02 37.395 107.205 37.398 107.015L37.2007 106.714C37.7503 106.56 37.2437 106.745 37.3486 106.458C37.1478 106.335 37.2312 106.495 37.1403 106.187C37.1288 106.148 37.1277 105.95 37.1259 105.912C37.1112 105.634 37.1068 105.506 37.0801 105.242C36.8826 105.432 36.7773 105.276 37.0007 105.378C36.5413 104.158 37.3946 102.986 37.0841 102.163C36.9691 101.686 37.2882 100.788 37.4481 100.356C37.534 100.124 37.7277 99.7525 37.8247 99.5747C38.0049 99.2444 38.0567 99.0752 38.4136 98.8987C38.8251 98.8122 38.8728 98.6849 39.0256 98.3488C39.4931 98.3602 38.8281 98.554 39.1986 98.3382C39.218 98.3269 39.4043 98.1844 39.4251 98.1723L39.7589 98.0156C39.9773 97.9155 40.0158 97.8978 40.1171 97.8447C43.3577 96.1434 44.4256 97.3556 45.2386 97.0374C45.6745 96.9582 45.6242 97.0709 46.1141 97.1124L46.0198 96.9369C46.4146 96.8327 46.2234 96.8348 46.6376 97.0001C46.857 97.0878 46.9111 97.1028 47.0905 97.1697C47.3216 97.2556 47.308 97.2774 47.5189 97.3641C48.5613 97.793 49.2616 98.3194 49.7005 98.4851C49.7454 98.3542 49.5964 98.399 49.8215 98.1937C49.6629 97.8255 49.5908 98.1737 49.8361 97.7924C49.3045 96.7085 48.215 87.8455 48.1745 85.5743C48.1741 85.5478 48.1901 85.2454 48.1912 85.239L48.2838 84.877C47.4804 84.7636 48.0994 84.5452 46.671 84.0549C45.7753 83.7471 45.4432 83.8769 44.83 83.6648C46.5304 83.5477 47.4263 84.3177 48.0873 84.2739L47.5331 83.3784C47.7111 83.4683 47.6165 83.3701 47.8491 83.5931C47.8627 83.6062 48.0031 83.7961 48.0466 83.8463C48.2449 83.7269 48.274 83.7842 48.3268 83.1692C48.353 82.8662 48.308 82.8333 48.3881 82.5074L48.8499 81.2174C48.3807 81.156 48.3638 80.6694 47.983 79.7083C47.2999 77.9832 46.815 76.4443 45.9335 74.5358C45.671 73.9678 45.433 73.4334 45.2085 72.9375C44.2789 70.8819 42.4781 67.3489 40.4072 66.5205C38.0278 65.569 34.9637 68.2193 33.3331 69.7328C33.0426 70.0025 33.0855 70.0486 32.8656 70.2845C32.6675 70.4972 32.5041 70.6321 32.3135 70.8792C30.3897 73.3734 27.7437 75.1856 24.7309 76.5585C23.6893 77.0332 22.1269 77.3935 20.8533 77.7192C20.344 77.8494 20.3754 77.7607 19.9633 77.8401C18.0303 78.2125 14.0215 79.7347 13.0886 81.469C11.7822 83.898 13.9878 87.0103 15.4035 89.1311C17.5496 92.3461 19.0786 93.8661 21.2065 96.664L23.6801 99.6658C25.677 101.905 28.6902 105.428 31.2951 106.901C32.1649 107.393 33.6255 108.35 34.469 108.682C39.3581 110.6 45.1276 111.104 48.9544 106.738C49.9532 105.598 50.6688 103.981 51.1413 103.621Z"
          fill="#39AAE1"/>
    <path fill-rule="evenodd" clip-rule="evenodd"
          d="M37.0801 105.242C37.1068 105.506 37.1112 105.634 37.1258 105.912C37.1277 105.95 37.1288 106.148 37.1403 106.186C37.2312 106.495 37.1478 106.334 37.3486 106.458C37.2932 106.11 37.2165 106.466 37.4199 105.988L37.9923 104.947C40.6973 101.062 44.5928 99.1057 49.4403 99.336C47.7997 98.0923 43.9709 96.1118 40.714 97.6787C39.1261 98.4426 38.3229 99.7207 37.8155 100.934C37.5062 101.672 37.4076 102.256 37.2519 103.067C37.1056 103.829 37.1802 104.526 37.0801 105.242Z"
          fill="#FDFDFD"/>
    <path fill-rule="evenodd" clip-rule="evenodd"
          d="M61.0824 96.1425C60.6908 95.1095 60.1955 93.989 59.5533 93.2171C58.6045 92.0768 58.2611 91.9922 57.1733 91.4145C56.53 91.3349 56.0117 91.1411 55.186 91.2722C53.1417 91.5963 52.3093 93.7568 52.2487 95.6032C53.3319 95.5425 53.9682 95.2393 55.1403 95.3379C56.0264 95.4125 56.7906 95.5719 57.5789 95.8462C60.1878 96.7531 61.031 98.0047 61.6741 98.2776L61.0824 96.1425Z"
          fill="white"/>
    <path fill-rule="evenodd" clip-rule="evenodd"
          d="M69.1436 98.2489C70.4364 97.3276 71.4481 96.2819 73.3455 95.7192C74.2989 95.4365 75.1177 95.2379 76.0847 95.2312C77.4321 95.222 77.5972 95.4017 78.5272 95.5071C78.1917 93.692 77.9706 92.525 76.7002 91.6008C75.8195 90.9598 73.9886 91.0144 72.6907 91.775C71.4669 92.4923 70.7628 93.6951 70.2991 94.611C69.7977 95.6017 69.2232 97.1909 69.1436 98.2489Z"
          fill="white"/>
    <path fill-rule="evenodd" clip-rule="evenodd"
          d="M24.4256 96.985C24.7232 96.6699 24.8323 95.7595 25.371 94.9055C25.5936 94.5531 25.6908 94.3012 25.9407 93.8692C26.0841 93.6208 26.478 93.1511 26.6816 92.9156C27.7646 91.6615 29.1675 90.5095 31.2077 90.0196C29.7782 87.4716 26.8191 86.5451 24.8089 88.9432C23.1978 90.8654 23.4638 93.7641 24.4256 96.985Z"
          fill="#FDFDFD"/>
    <path fill-rule="evenodd" clip-rule="evenodd"
          d="M37.6021 86.2283C38.2763 85.7882 38.6111 85.3176 39.4686 84.8371C41.7046 83.5844 44.7865 83.2212 47.1038 83.9108C46.6743 83.1249 45.1234 81.9732 44.4101 81.4376C42.0515 79.6663 38.4617 79.5721 37.264 81.9538C36.5672 83.3396 36.9931 84.5418 37.6021 86.2283Z"
          fill="#FDFDFD"/>
    <path fill-rule="evenodd" clip-rule="evenodd"
          d="M46.9851 97.7663C47.3027 97.8469 47.4678 97.924 47.7427 98.0553C48.0981 98.2251 48.1103 98.2024 48.359 98.4994L47.2285 97.984C46.8576 97.7748 47.1696 97.9936 46.9851 97.7663ZM38.4638 99.0822C38.1921 99.6101 37.8792 99.9504 37.6418 100.623C37.4374 101.202 37.2621 101.774 37.1342 102.346C37.4447 103.17 36.5914 104.342 37.0508 105.562C36.8274 105.46 36.9327 105.615 37.1302 105.426C37.2301 104.71 37.1557 104.013 37.302 103.251C37.4577 102.44 37.5563 101.856 37.8656 101.117C38.3731 99.9043 39.1762 98.6263 40.7641 97.8623C44.021 96.2954 47.8499 98.276 49.4904 99.5197C44.6429 99.2894 40.7474 101.245 38.0424 105.131L37.47 106.172C37.2667 106.65 37.3434 106.294 37.3988 106.642C37.2938 106.929 37.8004 106.744 37.2508 106.897L37.4481 107.198C37.6238 107.056 37.5476 107.186 37.6531 107.017C37.5695 106.653 37.4502 107 37.9014 106.229L39.3806 104.236C40.6343 102.801 41.9372 101.837 43.7048 101.022C45.3372 100.269 47.6237 99.757 49.3751 99.8818C49.7333 99.9075 49.6152 99.9075 50.0234 99.9531L50.2048 99.9325C50.0146 99.2133 49.8302 99.4684 50.2211 99.4403L50.0606 99.0452C49.5496 98.9395 49.8984 99.0043 49.5262 98.7455C49.4259 98.6759 49.2133 98.5744 49.0445 98.4948C48.6725 98.3195 48.5377 98.177 48.0862 97.9457C47.8256 97.8123 47.3621 97.6173 47.0509 97.5091C46.8693 97.446 46.7126 97.3776 46.532 97.3057C46.4524 97.2738 46.3796 97.2486 46.3044 97.2188L46.0699 97.1205L46.1642 97.2959C46.2733 97.4262 46.3119 97.4228 46.5767 97.527C46.6891 97.5712 46.6985 97.5612 46.8064 97.6183C46.9819 97.7115 46.891 97.6712 46.9851 97.7663C46.6624 97.7446 45.6601 97.3441 45.2887 97.2209C44.4757 97.5391 43.4078 96.3269 40.1672 98.028C40.0659 98.0813 40.0274 98.0991 39.809 98.1989L39.4753 98.3558C39.4544 98.3679 39.2682 98.5104 39.2487 98.5217C38.8782 98.7376 39.5432 98.5438 39.0757 98.5323C38.9229 98.8684 38.8753 98.9958 38.4638 99.0822Z"
          fill="white"/>
    <path fill-rule="evenodd" clip-rule="evenodd"
          d="M51.8619 94.3054C51.6243 94.5375 51.534 94.0107 51.7058 94.6394C51.6069 94.5936 51.5844 94.6717 51.3626 94.8847C51.2604 95.3273 51.1737 95.6136 51.4644 96.0069C51.9143 96.0363 52.5921 95.7722 53.1294 95.7018C53.5967 95.6405 54.1662 95.4411 54.5188 95.6343C54.9278 95.9277 55.0513 95.6889 55.9533 95.8731C56.2283 95.9293 56.3148 95.9739 56.5733 96.0463L58.1562 96.6095C59.3585 97.0888 59.2461 97.3839 59.8403 97.3337C60.0655 97.3312 59.9351 97.2601 60.161 97.3929C60.3053 97.4775 60.3445 97.564 60.4419 97.6982C61.0637 97.8711 61.7051 99.0638 62.1441 99.2951C62.3218 98.891 62.159 98.1952 62.0597 97.7273C62.0344 97.6081 62.001 97.5217 61.9979 97.3973C61.9926 97.1959 62.0234 97.202 62.0539 97.1028L61.9688 96.4812C61.5968 96.9661 61.5464 96.0446 61.8058 97.2049C61.5818 96.9086 61.8039 97.0028 61.6116 97.3476C61.4497 96.7548 61.4689 96.4234 61.0825 96.1425L61.6741 98.2777C61.0311 98.0047 60.1878 96.7531 57.579 95.8462C56.7907 95.572 56.0264 95.4125 55.1403 95.3379C53.9683 95.2394 53.3319 95.5426 52.2487 95.6032C52.3093 93.7569 53.1417 91.5963 55.1861 91.2722C56.0118 91.1412 56.5301 91.335 57.1733 91.4146C57.8574 91.108 57.4551 91.3604 57.6565 90.9407C57.3876 90.8505 57.6331 90.8965 57.4354 90.8502C57.1591 90.7859 57.3848 90.7963 57.0689 90.8248C56.4741 90.9067 53.8155 89.5228 52.3534 92.7343C51.9737 93.5685 52.0861 93.5818 51.9137 94.1945C51.9104 94.2058 51.8962 94.2641 51.8882 94.2516C51.8807 94.2397 51.8711 94.2876 51.8619 94.3054Z"
          fill="#E51170"/>
    <path fill-rule="evenodd" clip-rule="evenodd"
          d="M21.9844 94.6597C21.2874 91.954 20.8076 90.5106 21.3073 87.9485C21.4893 87.0151 21.9242 85.9761 22.32 85.3388C22.7859 84.5886 23.7175 83.715 23.5334 82.875C21.9511 83.2755 20.766 86.4654 20.6076 87.7226C20.3614 89.675 20.72 92.8761 21.9844 94.6597Z"
          fill="#FAFAFA"/>
    <path fill-rule="evenodd" clip-rule="evenodd"
          d="M35.265 76.0798C35.7484 76.6376 37.8291 76.209 38.4646 76.2167C40.1867 76.2377 42.5665 77.2217 43.8599 78.2581C44.2465 78.5679 44.5594 78.8378 44.9682 79.1954C45.2994 79.4853 45.7218 80.0231 46.0464 80.2044C45.1076 78.4654 43.1096 76.9823 41.5048 76.166C40.6193 75.7155 36.2347 74.5633 35.265 76.0798Z"
          fill="#FAFAFA"/>
    <path fill-rule="evenodd" clip-rule="evenodd"
          d="M69.214 90.6993C69.5377 90.5282 69.7883 90.1602 70.0807 89.8424C71.9292 87.8331 75.1029 87.101 77.6563 88.0338C78.3257 88.2784 78.2365 88.4729 78.8827 88.5844C77.2283 86.5688 72.7283 86.1718 69.9367 89.5761C69.6919 89.8745 69.2558 90.3342 69.214 90.6993Z"
          fill="white"/>
    <path fill-rule="evenodd" clip-rule="evenodd"
          d="M51.6029 88.912C53.6138 87.9321 55.0373 87.1602 57.8097 88.1295C59.4126 88.6898 61.2881 90.2825 62.1051 91.6844C61.5009 90.1438 59.532 88.143 57.8782 87.5308C56.9338 87.1811 55.9298 87.0579 54.6755 87.2599C53.7574 87.408 52.5992 87.9632 51.8955 88.5569L51.6029 88.912Z"
          fill="white"/>
    <path fill-rule="evenodd" clip-rule="evenodd"
          d="M52.9436 79.4171C54.3087 79.2702 55.8657 79.7925 56.8814 80.2038C59.7542 81.3677 63.7517 82.077 66.9791 81.6963C67.7885 81.6006 68.5869 81.3524 69.2441 81.2701C66.4715 81.8224 62.884 81.5998 60.5815 81.0486C57.2802 80.2582 55.5767 78.9931 52.9436 79.4171Z"
          fill="white"/>
    <path fill-rule="evenodd" clip-rule="evenodd"
          d="M15.451 80.3805C16.8514 79.8005 17.206 79.4706 18.9593 79.1993C22.2115 78.6963 25.2166 77.6781 27.9803 75.9251L29.2925 74.8694C26.6333 76.3954 26.2868 76.987 22.813 78.0767C19.9605 78.9717 17.8646 78.7336 15.451 80.3805Z"
          fill="#F6F6F6"/>
    <path fill-rule="evenodd" clip-rule="evenodd"
          d="M71.5994 108.439C69.7751 108.985 68.5761 109.877 65.8771 109.84C62.9495 109.801 62.5073 109.27 60.9503 109.088C61.3159 109.386 61.5531 109.418 62.0379 109.544C63.341 109.882 64.3964 110.09 65.8539 110.045C67.2066 110.005 70.7574 109.374 71.5994 108.439Z"
          fill="white"/>
    <path fill-rule="evenodd" clip-rule="evenodd"
          d="M73.4319 107.166C73.7253 107.168 73.6946 107.163 73.9186 107.228C74.1284 108.15 72.9817 109.798 72.4392 110.549L71.7514 111.675C72.6517 111.014 74.6678 107.463 74.7313 106.267C74.2183 106.432 73.7163 106.756 73.4319 107.166Z"
          fill="white"/>
    <path fill-rule="evenodd" clip-rule="evenodd"
          d="M72.7224 91.1949C73.7477 90.8244 75.1646 89.9573 76.7811 90.8307C78.0737 91.5292 78.275 92.8712 78.7749 94.55C78.5941 93.2594 78.5849 91.64 76.8965 90.6254C76.3628 90.3047 75.6633 90.1497 74.8382 90.2672C73.7533 90.4216 73.4727 90.7846 72.7224 91.1949Z"
          fill="white"/>
    <path fill-rule="evenodd" clip-rule="evenodd"
          d="M36.6065 85.4971C36.2529 83.8798 35.631 83.2869 36.2247 81.6321C36.6274 80.5101 37.6855 79.8376 39.3566 79.5351C38.2341 79.0628 34.6539 80.6962 36.1449 84.5596C36.2874 84.929 36.5375 85.232 36.6065 85.4971Z"
          fill="#EFEFEF"/>
    <path fill-rule="evenodd" clip-rule="evenodd"
          d="M65.7559 114.315L65.4249 114.457C66.3965 114.351 66.8232 114.567 68.0648 114.151C70.1382 113.457 72.3054 111.067 72.7353 109.401C72.4628 109.653 72.5677 109.538 72.3838 109.888C71.8649 110.875 71.0498 111.948 70.1725 112.715C69.5921 113.222 69.0017 113.588 68.1465 113.932L66.2861 114.362C66.232 114.367 66.0581 114.373 66.0105 114.37C65.8326 114.36 65.7616 114.317 65.7559 114.315Z"
          fill="white"/>
    <path fill-rule="evenodd" clip-rule="evenodd"
          d="M51.8619 94.3054C51.8711 94.2877 51.8807 94.2397 51.8882 94.2516C51.8961 94.2641 51.9103 94.2058 51.9137 94.1945C52.0861 93.5818 51.9737 93.5685 52.3534 92.7343C53.8155 89.5228 56.474 90.9067 57.0688 90.8248C56.1269 90.2211 54.5873 90.1142 53.3369 91.0218C52.5375 91.6019 51.7839 93.1794 51.8619 94.3054Z"
          fill="white"/>
    <path fill-rule="evenodd" clip-rule="evenodd"
          d="M58.6298 109.859C58.3604 109.08 57.9773 108.856 57.7566 107.814C58.0937 107.795 57.8505 107.787 58.0785 107.837C58.1019 107.843 58.1313 107.855 58.1562 107.861L58.5428 107.951C58.1136 107.616 57.5232 107.095 56.9806 107.153C56.8996 107.562 56.9687 107.578 57.1859 107.971C57.5123 108.563 58.1401 109.539 58.6298 109.859Z"
          fill="white"/>
    <path fill-rule="evenodd" clip-rule="evenodd"
          d="M37.6531 107.017C37.5476 107.186 37.6238 107.056 37.4481 107.198C37.4452 107.388 37.4978 107.204 37.4257 107.417C37.4255 107.417 37.3354 107.609 37.326 107.625C37.1931 107.859 37.1641 107.896 36.8934 108.049C36.5058 107.367 36.6061 106.514 36.5177 105.784C36.2708 106.612 36.0905 107.973 36.5229 109.028C37.087 108.812 36.9586 108.592 37.2015 108.107C37.3764 107.759 37.6201 107.413 37.6531 107.017Z"
          fill="#FAFAFA"/>
    <path fill-rule="evenodd" clip-rule="evenodd"
          d="M24.5013 88.0939C24.8544 87.9186 25.2156 87.3941 25.7071 87.0913C27.1322 86.2127 28.1333 86.5897 29.1722 87.1822C30.1563 87.7434 29.8999 87.9236 30.5024 88.1564C29.1513 86.2859 26.8223 85.6151 25.0012 87.4154C24.8739 87.541 24.8578 87.5558 24.719 87.7154L24.5013 88.0939Z"
          fill="#F2F2F2"/>
    <path fill-rule="evenodd" clip-rule="evenodd"
          d="M68.6084 99.1723C68.4596 98.9771 68.5898 98.4623 68.567 98.1045C68.2724 98.6968 68.2678 99.6508 68.5472 100.256C69.1602 99.5954 68.9647 98.6776 70.7957 97.3489L71.2895 96.9628C69.7704 97.5556 68.9108 99.0819 68.7671 99.169C68.5852 99.2797 68.7562 99.2092 68.6084 99.1723Z"
          fill="white"/>
    <path fill-rule="evenodd" clip-rule="evenodd"
          d="M25.3844 95.5565C24.8408 96.1138 24.7909 97.7767 24.5957 98.1535C24.0452 97.8447 23.9213 96.7443 23.6114 96.1942C23.8218 97.0809 24.1597 98.8545 25.0768 99.01C24.7489 96.4745 25.1758 96.9392 25.3844 95.5565Z"
          fill="#F6F6F6"/>
    <path fill-rule="evenodd" clip-rule="evenodd"
          d="M60.4419 97.6982C60.645 98.0837 61.0183 98.2712 61.364 98.7737C61.6496 99.1894 61.7986 99.8415 62.1702 100.239C62.291 100.159 62.3989 100.248 62.4292 99.6602C62.4724 98.8133 62.1546 97.9195 62.0538 97.1028C62.0233 97.202 61.9926 97.1959 61.9978 97.3972C62.0009 97.5217 62.0344 97.6081 62.0597 97.7273C62.1589 98.1952 62.3217 98.891 62.1441 99.2951C61.705 99.0637 61.0636 97.8711 60.4419 97.6982Z"
          fill="white"/>
    <path fill-rule="evenodd" clip-rule="evenodd"
          d="M28.7625 91.4192C29.4141 91.1097 29.8944 90.8034 30.6334 90.5652C31.4305 90.3084 33.68 90.7319 32.2058 89.3613L31.8395 89.0994C32.4138 90.356 31.9711 89.9813 30.7042 90.4145C30.3926 90.5212 29.9951 90.6869 29.6831 90.8265C29.2812 91.0065 29.0008 91.113 28.7625 91.4192Z"
          fill="#F6F6F6"/>
    <path fill-rule="evenodd" clip-rule="evenodd"
          d="M54.5188 95.6342C54.1662 95.441 53.5967 95.6404 53.1294 95.7017C52.5921 95.7721 51.9144 96.0361 51.4644 96.0068C51.1737 95.6135 51.2604 95.3272 51.3626 94.8846L51.3338 94.7719C51.2429 95.1369 50.9794 95.6244 50.9796 96.0559C50.9798 96.2033 50.9582 96.1728 51.0132 96.3343C51.1516 96.7413 51.0673 96.4471 51.1651 96.5636C51.6939 96.5748 52.0916 96.1537 52.6389 95.9482C53.2676 95.7121 53.9016 95.7254 54.5188 95.6342Z"
          fill="white"/>
    <path fill-rule="evenodd" clip-rule="evenodd"
          d="M48.3339 85.0606C48.1465 84.495 48.4146 84.5016 48.0967 84.0299C48.0533 83.9796 47.9128 83.7898 47.8992 83.7767C47.6666 83.5537 47.7613 83.6518 47.5833 83.562L48.1375 84.4573C47.4765 84.5012 46.5805 83.7312 44.8802 83.8483C45.4934 84.0603 45.8254 83.9307 46.7212 84.2382C48.1496 84.7288 47.5306 84.9472 48.3339 85.0606Z"
          fill="#F7F7F7"/>
    <path fill-rule="evenodd" clip-rule="evenodd"
          d="M37.0717 86.9483C36.8285 86.7735 36.9327 86.8799 36.772 86.6376L36.5008 86.2377C36.6002 86.7843 36.6966 87.2169 37.0514 87.5922C37.7963 87.3917 37.4958 86.7701 38.6972 85.7713L38.8366 85.6594C39.087 85.4208 38.9125 85.5863 39.0172 85.4452C38.4049 85.8255 37.5708 86.8128 37.0717 86.9483Z"
          fill="#F7F7F7"/>
    <path fill-rule="evenodd" clip-rule="evenodd"
          d="M79.4125 95.7986C78.7151 96.0128 78.6466 95.6761 77.945 95.6733C77.9728 95.6944 78.0039 95.6938 78.0282 95.7371L78.7467 96.1468C79.0409 96.3125 79.2771 96.459 79.6934 96.4073C79.7839 95.8813 79.6401 95.2397 79.3949 94.6245C79.3843 95.0851 79.4794 95.3628 79.4125 95.7986Z"
          fill="white"/>
    <path fill-rule="evenodd" clip-rule="evenodd"
          d="M50.0606 99.0452C49.8391 98.6933 49.9929 98.8656 49.7507 98.6687C49.3118 98.503 48.6115 97.9766 47.569 97.5477C47.3582 97.461 47.3717 97.4392 47.1406 97.3531C46.9613 97.2864 46.9072 97.2714 46.6877 97.1837C46.2735 97.0184 46.4647 97.0163 46.0699 97.1205L46.3044 97.2189C46.3797 97.2487 46.4524 97.2739 46.532 97.3058C46.7126 97.3777 46.8693 97.446 47.0509 97.5092C47.3621 97.6173 47.8257 97.8124 48.0863 97.9458C48.5377 98.1771 48.6725 98.3196 49.0445 98.4949C49.2133 98.5745 49.4259 98.676 49.5262 98.7456C49.8984 99.0044 49.5496 98.9396 50.0606 99.0452Z"
          fill="white"/>
    <path fill-rule="evenodd" clip-rule="evenodd"
          d="M37.1342 102.346C37.2621 101.774 37.4375 101.202 37.6418 100.623C37.8793 99.9504 38.1921 99.6101 38.4638 99.0823C38.1068 99.2586 38.055 99.428 37.8747 99.7583C37.7779 99.936 37.5842 100.308 37.4983 100.539C37.3384 100.972 37.0193 101.87 37.1342 102.346Z"
          fill="#F1F1F1"/>
    <path fill-rule="evenodd" clip-rule="evenodd"
          d="M46.9851 97.7662C46.891 97.6712 46.9819 97.7114 46.8064 97.6183C46.6985 97.5612 46.6891 97.5712 46.5767 97.527C46.3119 97.4228 46.2732 97.4261 46.1642 97.2959C45.6743 97.2544 45.7246 97.1417 45.2887 97.2209C45.6601 97.344 46.6624 97.7446 46.9851 97.7662Z"
          fill="#39AAE1"/>
    <path fill-rule="evenodd" clip-rule="evenodd"
          d="M25.3844 95.5564C25.62 95.3522 25.6891 94.9298 26.271 94.0562C26.4394 93.803 26.3612 93.9175 26.4298 93.723C25.9115 94.3232 25.5646 94.8058 25.3844 95.5564Z"
          fill="#D9D7D8"/>
    <path fill-rule="evenodd" clip-rule="evenodd"
          d="M46.985 97.7664C47.1696 97.9937 46.8576 97.7749 47.2285 97.9841L48.3589 98.4995C48.1102 98.2025 48.0981 98.2252 47.7426 98.0554C47.4678 97.9241 47.3027 97.847 46.985 97.7664Z"
          fill="#39AAE1"/>
    <path fill-rule="evenodd" clip-rule="evenodd"
          d="M55.8141 114.35C55.9526 114.607 56.0805 114.799 56.2358 115.045C56.4225 114.754 56.4762 115.294 56.3746 114.788C56.1165 114.566 56.268 114.482 55.8935 114.217L55.8141 114.35Z"
          fill="#E51170"/>
    <path fill-rule="evenodd" clip-rule="evenodd"
          d="M59.8438 108.67C59.5648 108.398 59.0839 108.188 58.6891 108.029C58.9746 108.402 58.6776 108.109 58.9182 108.296L59.8438 108.67Z"
          fill="white"/>
    <path fill-rule="evenodd" clip-rule="evenodd"
          d="M61.7748 113.505C62.2246 113.781 61.9443 113.894 62.647 114.018C62.0428 113.546 62.2313 113.601 61.7748 113.505Z"
          fill="white"/>
    <path fill-rule="evenodd" clip-rule="evenodd"
          d="M62.6505 114.038C62.875 114.282 62.7195 114.279 63.4081 114.443C63.2031 114.239 63.3755 114.366 63.179 114.236C63.1492 114.216 63.062 114.172 63.0302 114.157C62.9153 114.104 62.8346 114.093 62.6505 114.038Z"
          fill="white"/>
    <path fill-rule="evenodd" clip-rule="evenodd"
          d="M60.4419 97.6981C60.3445 97.5639 60.3052 97.4774 60.161 97.3928C59.9351 97.26 60.0655 97.3311 59.8402 97.3336C59.9065 97.3822 60.0607 97.5161 60.0728 97.5247C60.0977 97.5428 60.176 97.6045 60.2036 97.6197C60.4013 97.727 60.2644 97.6597 60.4419 97.6981Z"
          fill="white"/>
    <path fill-rule="evenodd" clip-rule="evenodd"
          d="M69.214 90.6993C68.9108 90.9386 68.8937 90.99 68.791 91.3097C68.8293 91.2743 69.0439 91.0761 69.0473 91.0719C69.4322 90.6006 69.1618 91.0073 69.214 90.6993Z"
          fill="white"/>
    <path fill-rule="evenodd" clip-rule="evenodd"
          d="M24.5012 88.0939L24.0009 88.9499C24.1351 88.8216 24.2045 88.7563 24.3276 88.5869C24.5834 88.2349 24.4918 88.2975 24.5012 88.0939Z"
          fill="#BDBBBB"/>
    <path fill-rule="evenodd" clip-rule="evenodd" d="M55.8145 114.352L55.7846 114.243L55.8145 114.352Z" fill="#9D9B9C"/>
</svg>
